<?xml version="1.0" encoding="UTF-8"?><svg id="_レイヤー_2" xmlns="http://www.w3.org/2000/svg" viewBox="0 0 752.15 76.95"><defs><style>.cls-1{fill:#fff;}.cls-2{fill:#e85471;}</style></defs><g id="_レイヤー_1-2"><rect class="cls-2" y="0" width="752.15" height="76.95"/><path class="cls-1" d="m104.93,19.95c.39,0,.59.23.59.67,0,.27-.08.55-.23.98v7.95c0,3.8,1.02,9.24,2.7,12.69,3.92,8.07,9.87,10.88,13.23,12.41l-1.29,2.08c-8.5-3.05-12.92-6.5-17.27-14.02-3.95,6.81-8.61,10.85-17.23,13.98l-1.57-1.84c3.8-1.76,8.22-4.27,12.18-10.45,1.41-2.23,3.68-6.11,3.68-15.39v-7.44c0-.35-.12-1.21-.2-1.68l5.4.08Z"/><path class="cls-1" d="m160.19,24.18v2.19h-25.14c-1.92,2.35-4.89,5.68-8.07,7.71l-1.92-1.45c5.21-5.32,6.93-10.02,7.48-13.12l5.68,1.88c.12.04.12.2.12.31,0,.27-.2.47-.31.55-.47.47-.94,1.41-1.29,1.92h23.45Zm-13.9,16.29c.08.04.12.2.12.39,0,.27-.27.51-.43.67-.67,1.53-1.61,3.41-3.64,6.03,3.41,2.47,5.13,4.11,6.07,4.97l-3.96,3.92c-.51-.78-1.84-2.74-5.05-5.87-1.53,1.29-5.29,4.03-12.02,6.11l-1.49-1.72c5.72-2.19,8.81-5.05,10.45-7.09-3.41-2.78-5.52-4.07-6.58-4.7l1.41-1.76c3.8,1.72,5.83,2.86,7.09,3.56,1.21-2.15,2.23-4.62,2.35-6.46l5.68,1.96Zm-16.41-2.74v-2.19h27.88c-1.25,4.46-1.33,9.24-1.33,10.69,0,1.06.08,5.21,1.21,5.21.9,0,2.27-2.23,2.94-3.68.86,2.15,1.21,2.78,2,3.68-1.25,2.08-3.25,5.44-6.46,5.44-4.07,0-5.01-4.89-5.01-9.98,0-3.52.47-7.01.74-9.16h-21.97Zm27.64-5.83h-24.59v-2.15h24.59v2.15Z"/><path class="cls-1" d="m183.94,51.35c2.62-.55,10.26-2.19,10.26-13.78,0-3.88-1.06-9.87-8.81-11.47-1.1,15.04-3.37,26.31-10.92,26.31-5.56,0-9.04-5.68-9.04-11.86,0-8.97,6.62-17.46,18.32-17.46,8.3,0,16.37,4.15,16.37,14.96,0,13.31-11.94,15.35-15.35,15.94l-.82-2.62Zm-13.74-9.63c0,5.52,1.76,7.6,3.68,7.6s5.09-7.28,5.87-23.18c-9.16,2.78-9.55,12.88-9.55,15.58Z"/><path class="cls-1" d="m239.59,42.42c.35.27-.59.7-.7.78-1.88,1.29-5.33,3.17-6.73,3.8.43.63,3.52,5.25,9,7.64l-1.29,1.88c-6.23-2.15-10.38-5.72-12.22-7.99-2.15-2.62-4.19-7.01-4.78-10.65h-2.62v13.27c1.06-.16,5.6-.94,6.54-1.14l-.39,2.27c-.12.04-11.08,2.86-14.92,3.84-.23.27-.35.47-.67.47-.04,0-.31-.16-.35-.23l-1.17-3.64c1.45-.08,2.54-.2,5.72-.7v-14.13h-3.6c-.43,10.22-3.25,14.6-6.46,18.21l-1.72-1.49c3.02-5.87,3.02-9.48,3.02-20.16v-13.08h34.61v2.19h-29.44v12.14h29.4v2.19h-12.02c.27,2.51,1.06,4.86,2,6.7.2-.16,3.37-2.86,4.82-5.29l3.99,3.13Zm-2.11-11.9h-22.75v-2.19h22.75v2.19Z"/><path class="cls-1" d="m278.07,39.6h-26.12v10.85c0,2.82.12,3.17,3.41,3.17h15.19c2.27,0,4.31,0,4.93-8.3,2.62,1.06,4.74,1.57,5.52,1.76-.39,3.41-1.72,5.87-2.35,6.7-.86,1.17-2.04,2.04-6.5,2.04h-19.34c-5.79,0-6.34-.86-6.34-5.87v-28.47h31.6v18.13Zm-5.32-15.97h-20.79v13.78h20.79v-13.78Z"/><path class="cls-1" d="m307.92,24.18c3.95,2.86,10.18,8.57,12.8,11.82l-5.17,3.33c-.59-1.29-1.17-2.62-2.9-5.32-18.64,2.66-18.68,2.66-26.47,3.48-.12.16-.39.43-.67.43-.08,0-.39-.04-.43-.2l-1.53-4.27c1.8.08,3.52,0,6.66-.2,1.41-1.88,6.42-9.48,7.71-13.7l6.15,2.04c.08.04.16.16.16.27,0,.31-.31.51-.74.74-3.64,4.62-5.72,7.17-8.69,10.42,4.27-.23,5.48-.31,16.44-1.14-2.47-3.48-4.31-5.29-5.21-6.19l1.88-1.53Zm-13.86,30.66v1.76h-5.4v-17.19h27.33v17.19h-5.36v-1.76h-16.56Zm16.56-2.19v-11.08h-16.56v11.08h16.56Z"/><path class="cls-1" d="m358.3,55.69c-3.02-.94-9.12-3.09-14.29-8.89v9.91h-5.52v-9.79c-3.88,4.07-8.73,7.05-14.09,8.81l-1.37-1.8c3.09-1.49,7.48-3.88,11.12-9.59h-7.01v-15.11h11.35v-3.56h-15.47v-2.19h15.47v-1.29c0-.35-.04-1.41-.04-2.19l5.56.04c.12,0,.23.2.23.31,0,.16-.16.51-.23.7v2.43h15.47v2.19h-15.47v3.56h11.43v15.11h-7.09c1.8,3.45,5.01,6.3,11.43,9.51l-1.49,1.84Zm-19.81-24.31h-5.79v4.11h5.79v-4.11Zm0,6.26h-5.79v4.5h5.79v-4.5Zm5.52-2.15h5.83v-4.11h-5.83v4.11Zm0,6.66h5.83v-4.5h-5.83v4.5Z"/><path class="cls-1" d="m373.24,29.7c.16.04.43.12.43.47,0,.27-.16.55-.51.94-2.08,6.66-4.97,12.72-10.06,18.01l-1.92-1.29c3.56-5.29,6.46-15.11,6.3-19.81l5.76,1.68Zm9.59-9.59c.16,0,.47,0,.47.43,0,.31-.16.74-.23.98v30.42c0,3.29-1.21,4.39-5.25,4.39h-6.46l-.82-2.51c1.17.16,3.29.47,4.66.47,1.84,0,2.43-.31,2.43-2.35v-28.82c0-.27-.08-1.76-.2-3.09l5.4.08Zm10.65,28.35c-1.76-9.12-4.42-15.23-6.46-19.5l1.92-1.06c4.19,5.48,7.6,11.51,10.14,17.89l-5.6,2.66Z"/><path class="cls-1" d="m439.87,43.75v2.19h-15.54v6.46c0,3.25-1.37,4.15-4.58,4.15h-6.85l-.67-2.51c1.6.2,2.78.35,4.35.35,1.8,0,2.19-.23,2.19-2.04v-6.42h-15.35v-2.19h15.35v-4.27l3.95.31c.47-.43,2.27-2.15,3.21-3.56h-15.7v-2.15h22.83v2.74c-3.25,2.27-4.42,2.98-8.73,5.32v1.61h15.54Zm-20.87-15.82c-.67-2.47-1.49-4.86-2.7-7.09l2.04-1.21c1.8,1.37,4.74,3.99,6.3,6.11l-3.95,2.19h8.93l-2.27-1.1c1.88-3.33,2.54-5.72,2.78-7.13l6.07,2.39c.08.04.12.12.12.2,0,.2-.23.63-.82.82-.16.16-3.8,3.68-5.6,4.82h9.08v7.56h-5.36v-5.4h-24.08v5.48h-5.29v-7.64h5.68c-.12-.27-1.88-4.35-3.45-6.5l1.88-1.29c2.58,1.17,5.68,3.99,7.13,5.6l-3.25,2.19h6.77Z"/><path class="cls-1" d="m458.31,44.42c-1.41-1.61-1.92-2.35-3.25-4.42v16.64h-5.17v-14.37c-1.96,3.68-3.64,5.36-4.66,6.42l-1.25-2c3.33-4.74,5.13-10.34,5.72-16.09h-4.89v-2.15h5.09v-5.01c0-1.29,0-2.31-.12-3.52l5.21.12s.23.2.23.51c0,.27-.08.51-.16.67v7.24h3.41v2.15h-3.37c.39,2.66,1.57,7.17,4.97,12.1l-1.76,1.72Zm8.07-9.4c.39,2.66,1.06,5.72,3.01,9.28.67-1.29,1.84-3.72,2.35-8.89l5.44,1.53c.2.04.27.2.27.43s-.27.51-.51.7c-1.25,4.74-3.45,8.18-4.86,10.02,1.37,1.45,4.46,4.31,9.95,6.66l-1.53,1.84c-5.36-1.72-8.81-4.11-10.92-5.87-2.11,1.88-5.56,4.07-12.02,5.87l-1.53-1.8c2.08-.74,6.62-2.31,10.73-6.77-2.94-3.37-4.35-6.54-5.48-11l5.09-2Zm-8.85,1.72c4.11-3.92,5.36-8.57,5.44-8.89l5.01,2.11s.12.08.12.16c0,.51-.24.67-.67.9-2.78,3.29-4.82,5.13-8.14,7.24l-1.76-1.53Zm23.69-11.12v2.15h-22.2v-2.15h7.63v-2.9c0-.35-.04-1.37-.12-2.74l5.36.08c.16,0,.27.35.27.51,0,.31-.08.47-.16.63v4.42h9.2Zm-2.82,12.96c-1.17-2.08-4.35-6.26-6.85-8.69l1.57-1.76c2.11,1.29,5.52,3.48,8.65,6.62l-3.37,3.84Z"/><path class="cls-1" d="m520.69,21.4v2.19h-28.43v29.17h29.17v2.15h-29.17v1.61h-5.4V21.4h33.83Zm-6.3,28.43c-1.1-1.8-3.13-5.05-6.81-9.28-.74.86-5.52,6.07-13,10.1l-2-1.49c2.08-1.41,7.2-4.93,12.14-11.71-2.04-2.08-4.97-4.82-10.65-8.77l1.61-1.64c6.3,3.41,9.67,5.87,11.24,7.05,2.27-3.76,3.56-7.28,3.96-8.65l5.4,2.47c.12.04.23.2.23.31,0,.16-.23.39-.47.59-1.1,2-2.7,4.82-5.44,8.26,4.58,4.23,7.05,7.28,8.18,8.65l-4.39,4.11Z"/><path class="cls-1" d="m543.48,56.79c-4.19-.98-12.33-3.84-12.33-18.44,0-12.88,6.19-16.99,12.33-18.44v2.43c-3.25,1.02-6.81,3.37-6.81,16.01s3.56,15,6.81,16.01v2.43Z"/><path class="cls-1" d="m546.92,41.68c3.99-3.95,7.99-9.91,8.85-14.37l5.25,2.04c.08.04.08.2.08.27,0,.39-3.09,4.58-3.88,5.52v21.53h-5.01v-16.17c-1.29,1.21-2.58,2.19-3.48,2.9l-1.8-1.72Zm13.04-20.16s.04.2.04.31c0,.35-.31.47-.47.55-4.15,5.64-9.08,9.01-10.53,9.98l-1.72-1.61c2.62-2.31,6.73-7.71,7.28-11.04l5.4,1.8Zm24.39,12.61v2.15h-9.44v5.56h7.63v2.19h-7.63v9.24c.43.04.51.04,1.53.04h3.37c1.88,0,4.07-.16,5.29-.43l-.82,2.58h-9.2c-5.72,0-8.18-.94-10.73-4.19-.7,1.33-2,3.48-4.58,5.36l-1.64-1.61c3.05-3.95,3.41-7.95,3.41-12.65,0-2-.04-2.35-.2-3.48l5.09.04c.08,0,.31.04.31.43,0,.16-.04.23-.16.59-.08,2.82-.2,4.23-.47,6.03.51,2,1.25,4.15,3.6,5.79v-15.51h-10.06v-2.15h10.06v-6.15h-7.83v-2.15h7.83v-3.25c0-.67-.08-1.76-.12-2.47l5.17.08c.08,0,.23.2.23.39,0,.12-.04.39-.08.55v4.7h7.79v2.15h-7.79v6.15h9.44Z"/><path class="cls-1" d="m602.05,38.94c.16.04.23.16.23.31,0,.31-.27.59-.63.7-3.49,4.03-6.42,6.73-11.32,9.2l-1.68-1.68c1.96-1.41,6.19-6.03,7.36-10.3l6.03,1.76Zm23.41-5.36v2.15h-15.47v7.01c0,3.17,0,5.48-4.5,5.48h-5.48l-.63-2.47c1.06.16,2.7.35,3.84.35,1.53,0,1.57-.51,1.57-1.92v-8.46h-15.7v-2.15h5.25v-7.99c0-.82-.08-1.76-.2-2.62l5.25.08c.16,0,.35.12.35.47,0,.23-.08.51-.12.67v9.4h5.17v-10.69c0-.98-.04-1.72-.16-2.9l5.32.04c.12,0,.27.2.27.47,0,.31-.16.59-.23.78v3.88h11.98v2.15h-11.98v6.26h15.47Zm-6.97,12.22c.12.08.12.2.12.27,0,.31-.35.55-.67.7-1.8,2.19-5.09,6.07-13.16,8.34-3.52.98-8.85,1.84-14.1,1.88l-1.37-2.35c4.03-.08,13.16-.31,19.66-5.52,2.08-1.68,4.19-4.11,4.93-6.73l4.58,3.41Zm2.47,3.29c-1.53-3.56-4.7-8.22-7.2-10.61l1.92-1.53c2.82,1.8,7.79,5.72,10.1,8.18l-4.82,3.95Z"/><path class="cls-1" d="m636.41,26.99c-1.37.63-3.76,1.06-6.46,1.14v-2.55c1.21-.23,4.58-.86,6.5-3.52h6.03v31.17h-6.07v-26.23Z"/><path class="cls-1" d="m663.41,53.81c-7.32,0-12.1-6.81-12.1-15.97,0-10.42,5.36-16.37,12.06-16.37,7.36,0,12.1,6.93,12.1,16.17,0,9.71-5.05,16.17-12.06,16.17Zm-.12-29.84c-3.33,0-5.56,1.96-5.56,13.82s2.55,13.51,5.76,13.51,5.56-2,5.56-13.66-1.92-13.66-5.76-13.66Z"/><path class="cls-1" d="m710.49,35.26c-5.13-4.03-7.24-7.87-8.38-12.18h-4.07v-2.15h9.75c.78,7.91,4.54,12.49,9.55,16.33l-1.64,1.64c-1.21-.74-2.74-1.68-4.85-3.37,0,.55.08,7.71-.86,14.29-.78,5.72-2.9,6.5-6.7,6.5h-5.79l-.82-2.58c1.92.31,3.33.43,4.5.47,1.25.04,2.55-.47,3.02-2.94.63-3.29.9-6.77,1.06-13.82h-7.87c-.08,9.28-3.56,15.04-14.49,18.99l-1.6-1.45c8.14-3.8,10.69-8.65,10.61-17.54h-5.6v-1.88c-2.23,1.68-3.56,2.39-4.7,2.98l-1.88-1.57c6.93-4.35,9.51-12.06,9.95-16.6l5.95,2.04c.08.04.23.2.23.27,0,.2-.35.59-.47.7-3.41,7.44-6.73,10.34-8.69,11.86h23.81Z"/><path class="cls-1" d="m721.33,19.91c4.19.98,12.33,3.84,12.33,18.44,0,12.88-6.19,16.99-12.33,18.44v-2.43c3.21-1.02,6.81-3.37,6.81-16.01s-3.56-15-6.81-16.01v-2.43Z"/></g></svg>