<?xml version="1.0" encoding="UTF-8"?><svg id="_レイヤー_2" xmlns="http://www.w3.org/2000/svg" viewBox="0 0 842.59 134.99"><defs><style>.cls-1{fill:#231815;}.cls-2{fill:#e85471;}</style></defs><g id="_レイヤー_1-2"><path class="cls-1" d="m24.77,36.08c-1.22-1.16-4.49-4.27-6.82-8.65v24.55h-5.54v-23.22c-2.44,4.99-4.93,8.26-10.42,13.13l-1.94-1.77c7.65-7.81,10.7-16.18,11.8-21.95H1.44v-2.49h10.97V6.87c-4.38.28-7.43.28-9.81.22l-1-2.33c2.88-.11,11.08-.33,19.45-3.1,1.05-.33,1.33-.55,2.16-1.22l3.38,3.93c.11.17.28.39.28.61,0,.33-.33.39-.61.39-.39,0-.67-.06-1.16-.06-.89,0-3.33.55-4.1.67-.94.17-1.94.28-3.05.39v9.31h10.64v2.49h-10.31c2.66,9.2,6.54,13.85,8.37,15.91l-1.88,2Zm12.25-30.87c.28,0,.78.11.78.55,0,.33-.28.83-.39,1.05v34.64h-5.76V9.09c0-2.05-.17-2.83-.5-4.1l5.87.22Zm12.69-3.93c.44,0,.89.22.89.55,0,.17-.33,1.05-.44,1.33v43.67c0,3.93-1.94,4.88-5.87,4.88h-8.15l-.83-3.05c1.27.22,3.38.55,5.93.55,2.33,0,2.99-.33,2.99-2.72V4.71c0-.33,0-2.16-.55-3.71l6.04.28Z"/><path class="cls-1" d="m72.77,52.09h-5.32v-30.31c-2,2.77-2.99,3.71-4.05,4.77l-2.27-1.55c4.43-5.54,9.48-16.63,10.97-24.94l5.93,2.33c.22.11.33.28.33.5,0,.55-.61.89-.89,1.11-.83,1.83-2.16,4.88-4.71,9.42v38.68Zm25.27-40.23h13.36v21.39h-13.41c-.39,4.32-1.05,7.37-3.49,10.31,4.82,2.83,12.08,4.77,18.29,5.71l-1.22,2.55c-12.03-1.55-18.68-4.99-19.95-5.65-1.5,1.05-6.04,4.16-13.85,5.43l-1.66-2.38c7.09-1.5,10.75-4.38,11.86-5.32-4.99-3.49-6.98-6.59-7.87-8.04l5.1-1.61c.67,1.33,2.05,3.71,5.38,6.59,1.44-2.49,1.61-4.43,1.77-7.59h-13.02V11.86h13.08v-5.93h-13.97v-2.49h34.36v2.49h-14.74v5.93Zm-5.65,2.49h-7.48v6.93h7.48v-6.93Zm-7.48,9.42v6.98h7.48v-6.98h-7.48Zm13.13-2.49h7.7v-6.93h-7.7v6.93Zm0,9.48h7.7v-6.98h-7.7v6.98Z"/><path class="cls-1" d="m128.25,11.97c-.22,8.87-.83,14.24-2.11,19.4l-4.6-2.38c2.72-6.98,3.33-13.13,3.44-17.68l3.27.67Zm7.37-11.19c.17,0,.72,0,.72.44,0,.28-.22.78-.33,1.05v49.6h-5.6V4.05c0-1.83-.17-2.72-.28-3.38l5.49.11Zm3.99,20.12c-.5-3.05-1.77-7.32-3.1-10.14l2.33-1.55c1.72,2.33,3.16,4.66,5.04,8.53l-4.27,3.16Zm9.75-4.71c-2.44,5.99-4.77,9.14-6.1,10.86l-2.66-1.39c3.44-6.32,5.93-13.97,5.82-21.06l6.43,1.05c.33.06.55.11.55.39s-.17.39-.72.89c-.44,1.44-1.22,3.88-2.33,6.82h6.43V4.1c0-1.88-.22-2.72-.33-3.44l5.99.11c.39,0,.67.06.67.44,0,.33-.22.72-.39,1.05v11.47h10.09v2.44h-10.09v13.02h8.87v2.49h-8.87v15.68h11.42v2.49h-33.53v-2.49h16.18v-15.68h-11.92v-2.49h11.92v-13.02h-7.43Z"/><path class="cls-1" d="m184.79,17.62c1.72-.28,9.86-2.05,11.69-2.38,3.16-9.31,3.55-10.59,4.38-13.19l4.82,2c.78.33,1,.5,1,.67s-.61.83-.72,1c-.5.72-2.72,6.93-3.33,8.7,1.27-.17,3.88-.5,6.1-.5,6.65,0,9.75,2.77,9.75,11.97,0,6.76-1.55,23.89-10.36,23.89-1.44,0-4.21-.5-9.42-3.55l1.27-3.33c3.05,2.33,5.38,2.99,6.15,2.99,3.55,0,6.54-10.59,6.54-20.73,0-5.49-.94-8.48-5.43-8.48-2,0-4.6.44-5.65.61-5.49,16.02-9.48,28.49-10.64,32.31l-6.04-2.27c2.05-4.66,6.76-17.9,10.47-28.71-3.05.78-6.15,1.66-9.59,3.1l-1-4.1Zm38.18-9.92c.44.55,1.44,1.88,2.16,2.77,3.16,4.05,5.54,7.15,8.7,13.25l-6.04,4.16c-.39-2.33-1.11-6.54-5.15-13.8-1.27-2.33-1.94-3.33-2.72-4.32l3.05-2.05Zm3.33-4.88c1.33.94,4.27,3.33,6.59,5.99l-3.05,2.49c-1.61-2.44-3.99-5.15-5.65-6.76l2.11-1.72Zm5.21-2.83c2.11,1.39,4.54,3.55,6.15,5.21l-2.99,2.55c-1.44-2.11-3.66-4.49-5.32-5.99l2.16-1.77Z"/><path class="cls-1" d="m296.18,6.65v2.44h-50.88v-2.44h22.39v-2.77c0-1.16-.06-1.39-.28-3.33l6.1.22c.39,0,.67.17.67.55,0,.17-.11.55-.44,1.39v3.93h22.44Zm-2.77,21.17v19.23c0,3.38-.78,4.6-5.49,4.6h-6.65l-1.05-2.77c1.11.11,2.77.33,4.66.33,2.27,0,2.66-.17,2.66-2.27v-16.63h-34.14v21.67h-5.82v-24.16h45.83Zm-7.32-14.46v10.25h-31.04v-10.25h31.04Zm-4.71,21.28v11.92h-21.89v-11.92h21.89Zm-20.56-18.84v5.43h19.62v-5.43h-19.62Zm4.27,21.28v7.04h10.7v-7.04h-10.7Z"/><path class="cls-1" d="m338.81,4.49c.22.22.83.78.83,1.22,0,.33-.11.39-1.27.55-2.55.44-24.44,15.85-24.44,18.9,0,.22.17.44.33.61,1.16,1.39,9.14,6.26,10.92,7.48,10.58,7.26,14.8,10.59,17.62,13.13l-4.43,5.71c-7.81-8.92-22.67-19.51-25.71-21.56-4.38-2.99-4.82-3.27-4.82-4.49,0-2.38,9.42-11.14,13.3-14.58,1.83-1.61,11.31-9.31,13.36-11.14l4.32,4.16Z"/><path class="cls-1" d="m368.4,50.99c-2.94-5.49-6.37-10.53-12.47-15.96l2.11-2.27c7.59,4.93,12.91,10.2,15.74,13.19l-5.38,5.04Z"/><path class="cls-1" d="m13.08,133.35h-5.93v-30.7c-2.49,2.99-3.71,4.21-4.93,5.43l-2.22-1.61c6.1-7.04,11.14-19.23,11.92-24.16l6.15,1.94c.28.11.44.28.44.55,0,.5-.61,1.05-.94,1.39-1,2.22-2.27,4.88-4.49,8.31v38.85Zm23.55-35.8v13.19h11.8v2.49h-11.8v15.35h15.46v2.49H14.91v-2.49h15.79v-15.35h-11.8v-2.49h11.8v-13.19h-13.69v-2.49h33.92v2.49h-14.3Zm-1.88-2.6c-3.94-6.71-5.87-9.03-7.98-11.14l2.22-1.94c4.99,3.21,9.03,7.32,11.03,9.53l-5.27,3.55Z"/><path class="cls-1" d="m83.58,129.86c5.76-1.55,10.36-3.88,14.19-18.62-3.16-1.83-6.93-3.71-13.47-4.77-3.99,9.53-8.53,20.45-15.41,20.45-3.71,0-6.43-2.83-6.43-8.04,0-1.55,0-15.13,17.01-15.85,3.49-8.81,4.6-12.8,5.38-15.63-4.71.28-8.92.78-12.03,1.27l-.5-3.66c7.48.11,14.63-.72,17.73-1.44l2,3.33c-.22.39-.67,1.16-1.27,2.83-.78,1.94-4.43,11.58-5.32,13.74,4.93.55,8.04,1.44,13.25,3.71.78-3.93,1.39-7.7,2.05-14.69l5.15,1.22c.5.11,1.66.33,1.66.78,0,.28-.78,1.5-.83,1.77-.72,4.82-1.44,8.59-2.66,13.36,3.71,2,5.82,3.33,8.92,5.71l-3.44,5.54c-2.33-2.72-3.88-4.16-6.87-6.43-3.27,10.31-6.65,15.3-17.51,18.57l-1.61-3.16Zm-17.29-10.25c0,.94.11,3.77,2.16,3.77.83,0,1.5-.44,2.66-2.27,1.05-1.66,3.27-5.71,7.15-14.91-8.92,1.11-11.97,9.03-11.97,13.41Z"/><path class="cls-1" d="m143.38,131.69c-2.05-9.98-4.21-19.95-6.43-30.2-3.16,1-9.48,3.1-12.19,4.82l-1.33-4.54c2.38-.39,3.88-.78,7.21-1.77,1.77-.55,3.88-1.16,5.6-1.66-1.55-7.15-2.05-9.31-3.1-12.86l5.38-.39c1.61-.11,1.66.17,1.66.44,0,.22-.33,1.11-.33,1.33,0,.44,1.77,8.7,2.11,10.09,3.21-.78,5.1-1.11,8.87-1.66,1.94-1.39,4.66-8.53,5.21-11.19l5.32,1.5c.44.11,1.44.39,1.44.78,0,.22-1,1.11-1.11,1.33-1.77,2.99-2.77,4.71-4.88,7.26,8.76.44,14.58,3.44,14.58,10.59s-5.99,11.19-15.85,11.19c-2.55,0-4.27-.22-5.32-.39l.22-3.27c1.05.17,2.94.55,4.71.55,5.1,0,9.64-2.83,9.64-7.93s-4.82-7.43-11.03-7.43c-4.49,0-8.7,1-11.19,1.61.83,3.93,4.32,19.67,6.87,30.54l-6.04,1.27Z"/><path class="cls-1" d="m212.39,82.97c1,.06,1.33.28,1.33.67,0,.28-.44,1.27-.44,1.5-.06.55,0,5.32.06,6.15,9.14-.44,12.3-.83,15.07-1.11v3.77c-4.66-.17-10.97.06-15.07.22.06,2.33.33,13.8.33,16.4,0,15.96-9.64,20.01-17.68,22.56l-1.66-2.88c2.66-.67,6.15-1.55,9.42-5.1,2.83-3.16,3.27-5.76,3.71-8.31-1.55,2.11-4.1,3.33-6.71,3.33-4.1,0-8.2-3.16-8.2-10.14s3.94-11.08,8.87-11.08c.78,0,3.44,0,6.1,2.16,0-2.88-.06-4.32-.11-6.71-12.86.44-19.9.83-24.94,1.55v-3.77c1.88.06,10.97.06,24.83-.61-.17-2.88-.33-6.26-.72-9.03l5.82.44Zm-14.58,26.38c0,4.82,2.05,6.82,4.6,6.82,2.05,0,3.71-1.39,4.43-2.83.33-.61.83-1.66.83-5.43,0-3.38-2.11-5.54-4.77-5.54-3.33,0-5.1,2.94-5.1,6.98Z"/><path class="cls-1" d="m249.63,88.79c.44.11,1.16.39,1.16.72,0,.17-.61.94-.67,1.05-.72,1.16-3.16,8.92-3.16,19.01s2.83,14.46,5.76,14.46c.72,0,2.88-.78,5.04-4.49l1.94,3.05c-1.16,1.66-4.16,5.93-8.2,5.93-2.49,0-10.36-1.22-10.36-19.34,0-10.42,1.83-18.23,2.72-22.06l5.76,1.66Zm24.33,1.83c7.59,9.42,9.53,18.62,9.75,28.93l-6.71,1.72c.28-2.16.33-4.88.33-5.99,0-8.04-1.61-16.13-6.15-22.78l2.77-1.88Z"/><path class="cls-1" d="m293.25,110.4c7.54-7.59,10.7-14.91,11.03-15.91l5.04,2.55c.22.11.33.33.33.5,0,.5-.67.83-1,.94-1.11,1.44-2.16,2.77-3.99,4.88v30.04h-5.32v-24.66c-1.66,1.55-2.22,2.05-4.05,3.55l-2.05-1.88Zm15.52-26.1c.22.11.5.28.5.55,0,.44-.39.67-1.05.94-6.65,6.59-10.47,8.87-12.3,9.98l-2-2.05c5.43-4.32,8.87-9.59,9.75-11.86l5.1,2.44Zm21,28.76v2.49h-7.65v9.26c.72-.11,3.55-.61,8.09-1.5l-.33,2.49c-9.86,2.6-16.9,4.05-20.45,4.82-.55.55-.78.78-1.11.78s-.67-.33-.78-.67l-1.11-3.71c2.27,0,7.7-.89,10.36-1.27v-10.2h-8.42v-2.49h8.42v-3.71c0-1.88-.17-2.88-.33-3.71l5.32.06c.28,0,.72,0,.72.39,0,.22-.11.5-.39.94v6.04h7.65Zm-.44-11.53v2.49h-20.95v-2.49h8.42v-8.92h-6.98v-2.49h6.98v-3.99c0-2.05-.17-2.99-.33-3.82l5.49.17c.44,0,.61.17.61.5,0,.22-.11.44-.44,1.11v6.04h6.65v2.49h-6.65v8.92h7.21Zm11.92,26.49c0,3.1-.17,5.04-5.15,5.04h-5.99l-.89-2.99c2.6.5,4.82.5,5.04.5,1.5,0,1.5-.44,1.5-2v-26.49h-6.1v-2.44h15.96v2.44h-4.38v25.94Zm4.16-41.4v2.44h-14.74v-2.44h14.74Z"/><path class="cls-1" d="m370.46,132.63c-2.94-5.49-6.37-10.53-12.47-15.96l2.11-2.27c7.59,4.93,12.91,10.2,15.74,13.19l-5.38,5.04Z"/><path class="cls-2" d="m452.2,109.65c.63.49-1.05,1.26-1.26,1.4-3.36,2.31-9.52,5.67-12.04,6.79.77,1.12,6.3,9.38,16.1,13.65l-2.31,3.36c-11.13-3.85-18.55-10.22-21.84-14.28-3.85-4.69-7.49-12.53-8.54-19.04h-4.69v23.73c1.89-.28,10.01-1.68,11.69-2.03l-.7,4.06c-.21.07-19.81,5.11-26.67,6.86-.42.49-.63.84-1.19.84-.07,0-.56-.28-.63-.42l-2.1-6.51c2.59-.14,4.55-.35,10.22-1.26v-25.27h-6.44c-.77,18.27-5.81,26.11-11.55,32.55l-3.08-2.66c5.39-10.5,5.39-16.94,5.39-36.05v-23.38h61.89v3.92h-52.65v21.7h52.58v3.92h-21.49c.49,4.48,1.89,8.68,3.57,11.97.35-.28,6.02-5.11,8.61-9.45l7.14,5.6Zm-3.78-21.28h-40.67v-3.92h40.67v3.92Z"/><path class="cls-2" d="m526.82,104.61h-46.69v19.39c0,5.04.21,5.67,6.09,5.67h27.16c4.06,0,7.7,0,8.82-14.84,4.69,1.89,8.47,2.8,9.87,3.15-.7,6.09-3.08,10.5-4.2,11.97-1.54,2.1-3.64,3.64-11.62,3.64h-34.58c-10.36,0-11.34-1.54-11.34-10.5v-50.9h56.5v32.41Zm-9.52-28.56h-37.17v24.64h37.17v-24.64Z"/><path class="cls-2" d="m585.75,77.03c7.07,5.11,18.2,15.33,22.89,21.14l-9.24,5.95c-1.05-2.31-2.1-4.69-5.18-9.52-33.32,4.76-33.39,4.76-47.33,6.23-.21.28-.7.77-1.19.77-.14,0-.7-.07-.77-.35l-2.73-7.63c3.22.14,6.3,0,11.9-.35,2.52-3.36,11.48-16.94,13.79-24.5l10.99,3.64c.14.07.28.28.28.49,0,.56-.56.91-1.33,1.33-6.51,8.26-10.22,12.81-15.54,18.62,7.63-.42,9.8-.56,29.4-2.03-4.41-6.23-7.7-9.45-9.31-11.06l3.36-2.73Zm-24.78,54.82v3.15h-9.66v-30.73h48.87v30.73h-9.59v-3.15h-29.61Zm29.61-3.92v-19.81h-29.61v19.81h29.61Z"/><path class="cls-2" d="m646.02,83.4h-7.98c-3.29,0-8.05.07-11.83.21v-4.9c4.41.21,9.73.21,11.83.21h26.25c3.64,0,7.77,0,11.9-.21v4.9c-2.17-.07-6.37-.21-11.97-.21h-7.7v37.59h13.3c5.6,0,9.03-.07,11.34-.21v4.9c-5.18-.21-9.59-.21-11.27-.21h-37.31c-4.27,0-9.17.14-11.13.21v-4.9c4.41.21,8.96.21,11.06.21h13.51v-37.59Z"/><path class="cls-2" d="m698.45,78.71c0-1.75-.07-3.99-.14-5.74l9.45.56c.91.07,1.26.14,1.26.56,0,.28-.49,1.47-.49,1.75v23.1c0,3.43.14,8.68.21,11.9h-10.43c0-.63.14-8.4.14-11.97v-20.16Zm9.1,50.2c6.44-1.33,17.01-3.57,20.79-16.45,1.68-5.81,1.75-13.44,1.75-26.88,0-3.78-.07-9.31-.42-12.88l9.73.63c.35,0,1.12.07,1.12.49,0,.28-.35,1.68-.35,2.03v20.3c0,25.76-8.05,33.25-30.59,37.17l-2.03-4.41Z"/><path class="cls-2" d="m815.29,81.09c-.42.7-2.59,4.2-3.08,4.97-3.22,4.69-8.26,11.2-16.94,17.99l-3.71-3.22c8.12-8.96,10.64-18.62,10.64-18.9,0-.14-.42-.14-.63-.14l-32.27.07c-2.24,0-10.22.14-12.32.28v-4.9c2.24.14,10.15.21,12.32.21l32.41-.07c2.38,0,7.07-.14,9.38-.49l4.2,4.2Zm-37.24,7.63l9.59.42c.42.07,1.47.07,1.47.49,0,.35-.28,2.03-.28,2.38v3.78c0,21.63-10.57,29.26-28.98,33.67l-1.68-4.2c5.04-1.19,19.88-4.62,19.88-26.11v-10.43Z"/><path class="cls-2" d="m830.54,73.24h12.04l-2.31,40.25h-7.42l-2.31-40.25Zm1.05,45.43h9.94v10.29h-9.94v-10.29Z"/></g></svg>