<?xml version="1.0" encoding="UTF-8"?><svg id="_レイヤー_2" xmlns="http://www.w3.org/2000/svg" viewBox="0 0 1519.19 81.89"><defs><style>.cls-1{fill:#eff0f2;}.cls-2{fill:#e85471;}</style></defs><g id="_レイヤー_1-2"><rect class="cls-1" width="1519.19" height="81.89"/><path d="m489.51,21.91c-1.17,0-1.59.04-2.07.13l-.33-.71c1.17.1,2.53.11,2.74.11h4.78c0-.52-.02-2.92-.38-4.07l2.28.71c.19.06.23.13.23.25,0,.19-.19.33-.61.61.02.38-.02,2.13-.02,2.49h4.12l1-1.15c.12-.13.19-.23.29-.23.08,0,.23.1.36.19l1.63,1.15c.06.04.19.15.19.29,0,.17-.15.21-.29.21h-6.92c1.4,3.22,4.89,6.92,8.13,7.71v.12c-.71.15-1.34.36-2.3,1.4-3.97-2.7-5.93-7.88-6.18-9.23h-.06c-.02,1.57-.02,2.17.02,7.48h.82l.77-.9c.12-.13.19-.23.29-.23.08,0,.21.08.36.19l1.07.92c.1.08.19.15.19.29,0,.17-.15.19-.29.19h-3.22c0,.81,0,2.17.04,2.94,0,.15.06.86.06,1.02,0,.81-.69,1-1.11,1-.75,0-.79-.35-.79-.71,0-.08.06-.71.06-.82.1-1.13.13-2.32.17-3.41h-1.21c-1.19,0-1.59.06-2.07.13l-.33-.71c1.17.12,2.53.12,2.74.12h.86c.02-1.88.04-3.76.06-5.66-3.55,5.89-7.63,7.19-8.13,7.33l-.06-.11c3.95-2.97,6.94-7.48,7.46-9.03h-4.37Z"/><path d="m526.82,21.27h-12.81c.04.69.08,1.69.08,3.13,0,2.13,0,7.06-3.59,10.09l-.12-.1c1.25-2.13,2.01-5.62,2.01-9.19,0-1.34-.13-3.93-.52-5.45l2.24,1.05h4.33c-.04-2.38-.25-2.92-.5-3.51l2.3.59c.1.02.31.12.31.29,0,.23-.35.38-.52.44v2.19h4.12l.73-1.25c.1-.15.19-.27.31-.27s.27.13.34.21l1.36,1.27c.1.08.19.17.19.31,0,.17-.15.19-.29.19Zm-1.27,13.12c-.56,0-.75-.46-.96-.98-.27-.69-.63-1.61-.81-1.94-.71.23-3.89,1.23-4.55,1.44-.61.21-3.01,1-4.24,1.23-.04.15-.12.5-.38.5-.15,0-.25-.17-.31-.29l-.94-2.26c.33.1.52.15,1.06.15.44,0,1.11-.08,1.65-.13,1.23-2.76,2.38-6.91,2.63-8.19.15-.75.12-1.11.1-1.48l2.19,1.02c.13.06.25.15.25.29,0,.21-.25.36-.59.5-2.72,5.87-3.26,6.81-3.95,7.81,1.9-.23,3.68-.5,6.85-1.09-.59-1.09-1.53-2.38-2.03-3.05l.1-.12c1.13.71,2.9,2.13,4.05,3.4.44.48.92,1.09.92,2.01,0,1.04-.79,1.19-1.02,1.19Z"/><path d="m551.87,25.61h-14.86c-1.17,0-1.59.04-2.07.13l-.31-.71c1.17.1,2.51.12,2.72.12h4.97v-3.57h-3.51c-.63,1.17-1.11,2.03-2.46,2.99l-.13-.04c1.38-2.74,1.96-5.37,1.96-6.08,0-.19-.02-.35-.08-.59l2.09.79c.13.06.29.1.29.29,0,.08-.06.13-.21.23-.06.04-.34.19-.4.23-.19.4-.38.82-.83,1.73h3.28c0-2.19-.08-2.53-.44-3.74l2.34.48c.29.06.38.08.38.23,0,.19-.33.42-.65.61v2.42h3.51l.86-1.15c.17-.25.25-.25.29-.25.13,0,.31.15.36.21l1.27,1.17c.11.1.19.17.19.29,0,.17-.17.19-.29.19h-6.2v3.57h4.93l1.02-1.25c.17-.21.19-.25.31-.25s.31.17.35.21l1.42,1.25c.1.1.19.17.19.29,0,.19-.17.21-.29.21Zm-3.28,3.26c0,.65.12,3.93.12,4.68,0,1.04-.9,1.05-1,1.05-.73,0-.73-.44-.73-1.17h-7.65c-.02.5-.04,1.3-1.04,1.3-.71,0-.71-.38-.71-.58,0-.67.17-3.76.17-4.47,0-1.36-.11-2.24-.19-2.76l2.01,1.15h7.17l.63-.82c.15-.19.21-.25.31-.25.08,0,.25.12.31.15l1.04.71c.06.04.23.17.23.29,0,.19-.23.36-.67.71Zm-1.61-.33h-7.65v4.43h7.65v-4.43Z"/><path d="m571.42,25.7c-1.94.42-3.05.67-5.1,1.59.06.33.15,1.07.15,2.09,0,.61,0,1.78-.75,1.78-.84,0-.86-1.23-.86-2.05,0-.75,0-.82-.02-1.07-.86.54-2.61,1.84-2.61,2.92,0,1.46,2.49,1.46,3.05,1.46.94,0,2.01-.13,2.95-.31.27-.04.46-.06.69-.06.94,0,1.19.63,1.19.96,0,.5-.48.71-.65.75-.29.08-2.13.19-2.92.19-1.23,0-5.2-.08-5.2-2.46,0-1.88,2.46-3.61,3.41-4.24-.13-1.02-.35-2-1.53-2s-1.94,1.09-2.32,1.76c-.79,1.42-1.04,1.53-1.36,1.53-.5,0-.65-.23-.65-.84,0-.27.02-1,.4-1.34,1.15-1.07,1.94-1.82,3.24-4.07-.75.1-1.04.13-1.44.13-1.8,0-2.03-1.29-2.03-1.55,0-.13.02-.21.06-.35.58.65,1.27.79,2.03.79.4,0,.82-.04,2.07-.21.21-.38,1.02-1.78,1.02-2.07,0-.35-.71-.75-1.44-.75.27-.25.71-.65,1.46-.65.9,0,1.86.77,1.86,1.23,0,.29-.19.5-.36.69-.46.5-.5.56-.94,1.19.73-.27,2.01-.73,2.19-.79.17-.06.29-.08.42-.08.48,0,1.02.29,1.02.75,0,.35-.27.52-.58.61-1.42.48-2.72.69-4.01.88-.31.42-1.71,2.32-1.9,2.65-.06.1-.13.25-.15.29.5-.15,1.23-.4,2.15-.4,1.63,0,2.01,1.21,2.19,1.73.48-.29,1.67-.98,3.36-1.8.46-.23.56-.4.56-.63,0-.29-.11-.36-.65-.69.17-.06.31-.1.5-.1,1,0,2.47.69,2.47,1.76,0,.5-.19.59-.96.77Z"/><path d="m586.15,22.12c.1.08.11.17.11.29,0,.13-.08.21-.17.25-.1.02-.59.08-.71.12-.38.5-.67.86-1.13,1.42.23.17.42.33.42.48,0,.08-.06.15-.1.19s-.17.15-.21.17c-.06.63-.12,1.15-.12,4.39,0,.59.02,3.51.02,4.18,0,1.25-.96,1.25-1.05,1.25-.65,0-.69-.52-.69-.88,0-.33.19-3.4.21-3.84.06-1.75.08-3.36.06-4.33-1.17,1.17-2.51,2.11-4.03,2.69l-.04-.08c1.76-1.63,4.07-4.45,5.16-6.52.12-.23.13-.27.48-1.21l1.78,1.44Zm-.65-3.57c.06.06.17.17.17.31,0,.15-.1.21-.27.23-.1.02-.52.02-.59.04-1.61,1.65-3.13,2.78-5.73,3.74l-.06-.15c1.53-1.07,3.61-3.28,4.35-4.58.17-.29.33-.81.42-1.15l1.71,1.57Zm6.94,5.68v.1c0,1.02.1,7,.1,8.31,0,.59,0,2.01-2.34,2.17-.19-1-.77-1.48-1.9-2.19v-.13c.35.04,1.27.13,1.96.13s.71-.19.71-.77c0-1.92-.06-5.79-.11-7.61h-2.99c-1.32,0-1.71.06-2.07.12l-.31-.69c.86.08,1.84.11,2.72.11h4.95l1.02-1.17c.19-.23.21-.23.29-.23.12,0,.27.11.36.19l1.27,1.17c.12.1.19.17.19.29,0,.19-.19.21-.29.21h-3.55Zm-.13-5.2l.82-1c.17-.21.21-.25.31-.25.12,0,.31.17.35.21l1.15,1.02c.12.1.19.15.19.29,0,.17-.17.19-.29.19h-6.02c-1.17,0-1.59.06-2.07.13l-.31-.71c.9.1,1.82.12,2.72.12h3.15Z"/><path d="m609.65,27.62c-.17.42-1.09,2.38-1.09,2.7,0,.17.19,1,.19,1.17,0,.58-.36.84-.73.84-.52,0-3.49-.96-3.8-6.71-.02-.42-.08-2.26-.13-2.63-.13-1.02-.36-1.48-.79-2.32.96.06,2.69.69,2.69,2.3,0,.11-.02.23-.06.44-.04.27-.38,2.23-.38,3.11,0,1.99,1.13,3.22,1.53,3.22.17,0,.35-.25.46-.4,1.04-1.5,2.09-2.99,3.07-4.56l.13.06c-.1.23-.19.5-1.09,2.78Zm8.09,1.57c-.33,0-.61-.31-1.15-.94-.12-.12-.65-.56-1.96-.82v-.1c.11-.02,1.61-.1,1.67-.12.17-.04.35-.21.35-.5,0-.33-.31-1.44-1.04-2.51-.77-1.11-1.73-1.84-2.19-2.17,1.96-.21,5.16,2.47,5.16,5.58,0,.88-.42,1.57-.84,1.57Z"/><path d="m641.66,34.1c-2.01-.84-3.32-2.57-4.09-3.87-.73.88-2.05,2.36-4.16,3.26,0,.77.02,1.48-1.09,1.48-.67,0-.73-.36-.73-.96,0-.19.1-1.86.1-2.17.02-.36,0-2.17,0-2.57-2.92,1.53-4.3,1.92-4.95,2.09-.27.48-.29.54-.48.54-.13,0-.21-.1-.25-.19l-.82-2.13c.23.08.42.11.81.11.48,0,1.3-.11,1.57-.15v-10.38c-.84.02-1.13.02-1.75.13l-.31-.71c.9.08,1.82.12,2.72.12h5.01l.94-1.05c.21-.23.21-.25.31-.25.11,0,.25.13.36.23l1.11,1.06c.08.08.17.15.17.27,0,.21-.19.21-.29.21h-2.61v4.16c0,3.61.02,4.22.15,9.84,1.84-1.36,3.01-3.28,3.53-4.2-1.13-2.59-1.65-5.39-1.8-8.21-.59.02-.88.08-1.17.12l-.31-.69c.9.08,1.82.11,2.72.11h2.95l.56-.65c.11-.13.21-.23.36-.23.12,0,.17.04.33.17l1.19.94c.12.08.15.21.15.29,0,.12-.04.19-.13.27-.23.17-.65.42-.9.59-.25,2.28-.94,5.02-2.47,7.4,1.67,2.15,3.78,3.01,4.99,3.41v.12c-.59.23-1.21.63-1.73,1.5Zm-9.97-14.94h-2.51v2.88h2.51v-2.88Zm0,3.34h-2.51v3.05h2.51v-3.05Zm0,3.51h-2.51v3.3c.77-.13,1.8-.31,2.51-.48v-2.82Zm4.33-5.26h-.4c.12.81.67,4.56,1.94,6.98,1.55-3.32,1.65-5.58,1.71-6.98h-3.24Z"/><path d="m652.85,22.65h2.99c0-.21.04-1.13.04-1.65,0-.58-.02-1.34-.04-1.78h-3.85c-1.17,0-1.59.04-2.07.13l-.31-.71c.9.08,1.8.12,2.72.12h3.43l.54-.58c.13-.15.21-.23.29-.23s.21.1.33.17l.94.65c.1.06.17.13.17.29,0,.23-.17.36-.63.67-.04.54.06,2.92.06,3.41,0,.63-.38,1.04-1.02,1.04-.69,0-.67-.52-.63-1.07h-3.3c-.08.31-.35,2.11-.52,3.16h3.55l.69-.75c.1-.11.21-.23.31-.23.08,0,.23.12.31.17l.84.67c.12.1.23.25.23.35,0,.31-.35.5-.58.58-.15,2.38-.82,4.87-1.88,6.12-.92,1.07-2.46,1.34-3.2,1.32-.25-1.02-.61-1.55-1.52-2.44v-.12c1.55.44,2.57.44,2.72.44.63,0,1.09-.35,1.59-1.75.44-1.21.65-2.67.69-3.91h-3.84c-.04.33-.13,1.05-.21,1.3-.15.48-.69.67-1.02.67s-.69-.21-.69-.63c0-.13.61-2.8.79-3.8.17-1,.17-1.67.15-2.53l1.92.9Zm11.72-4.35c.23.06.36.12.36.27,0,.13-.1.31-.61.65-.04,1.92.02,9.05.04,9.76.13,4.03.15,4.47.15,4.53,0,.52-.13,1.19-1.23,1.19-.5,0-.65-.33-.65-.67,0-.21.02-.44.02-.54.1-1.36.12-2.88.12-4.22,0-1.71-.02-8.48-.06-9.25-.04-.71-.25-1.65-.42-2.22l2.28.5Z"/><path d="m685.63,25.7c-1.94.42-3.05.67-5.1,1.59.06.33.15,1.07.15,2.09,0,.61,0,1.78-.75,1.78-.84,0-.86-1.23-.86-2.05,0-.75,0-.82-.02-1.07-.86.54-2.61,1.84-2.61,2.92,0,1.46,2.49,1.46,3.05,1.46.94,0,2.01-.13,2.95-.31.27-.04.46-.06.69-.06.94,0,1.19.63,1.19.96,0,.5-.48.71-.65.75-.29.08-2.13.19-2.92.19-1.23,0-5.2-.08-5.2-2.46,0-1.88,2.46-3.61,3.41-4.24-.13-1.02-.35-2-1.53-2s-1.94,1.09-2.32,1.76c-.79,1.42-1.04,1.53-1.36,1.53-.5,0-.65-.23-.65-.84,0-.27.02-1,.4-1.34,1.15-1.07,1.94-1.82,3.24-4.07-.75.1-1.04.13-1.44.13-1.8,0-2.03-1.29-2.03-1.55,0-.13.02-.21.06-.35.58.65,1.27.79,2.03.79.4,0,.83-.04,2.07-.21.21-.38,1.02-1.78,1.02-2.07,0-.35-.71-.75-1.44-.75.27-.25.71-.65,1.46-.65.9,0,1.86.77,1.86,1.23,0,.29-.19.5-.36.69-.46.5-.5.56-.94,1.19.73-.27,2.01-.73,2.19-.79.17-.06.29-.08.42-.08.48,0,1.02.29,1.02.75,0,.35-.27.52-.58.61-1.42.48-2.72.69-4.01.88-.31.42-1.71,2.32-1.9,2.65-.06.1-.13.25-.15.29.5-.15,1.23-.4,2.15-.4,1.63,0,2.01,1.21,2.19,1.73.48-.29,1.67-.98,3.36-1.8.46-.23.56-.4.56-.63,0-.29-.12-.36-.65-.69.17-.06.31-.1.5-.1,1,0,2.47.69,2.47,1.76,0,.5-.19.59-.96.77Z"/><path d="m701.15,19.72c0,.65.06,3.51.06,4.09,0,.77-1,.81-1.09.81-.58,0-.58-.48-.58-.65,0-.13,0-.23.02-.33h-3.38c0,2,0,7.77.04,9.25,0,.23.08,1.19.08,1.38,0,.73-1.07.73-1.09.73-.44,0-.54-.15-.54-.52,0-.19.06-1.34.06-1.59,0-2.19,0-11.62-.12-13.39-.04-.77-.08-1.11-.17-1.63l1.88.92h3.11l.61-.59c.1-.1.21-.19.31-.19.08,0,.15.04.31.15l.92.63s.17.13.17.27c0,.17-.06.23-.59.67Zm-1.55-.48h-3.4v1.63h3.4v-1.63Zm0,2.09h-3.4v1.84h3.4v-1.84Zm7.35,7.71h-2.8c0,.65.15,3.55.15,4.2,0,.75-.86.84-1.09.84-.35,0-.52-.17-.52-.58,0-.19.06-1.05.06-1.25.04-1.57.02-2.59,0-3.22h-1.59c-.04.48-.19,2.05-1.52,3.3-1.07,1.04-2.24,1.4-2.8,1.57v-.1c.71-.4,2.49-1.71,2.86-4.78h-.33c-1.17,0-1.59.04-2.07.11l-.33-.69c1.23.1,2.67.12,2.76.12.04-.73.04-1.52.02-2.26-1,0-1.46.08-1.76.13l-.31-.71c1.15.1,2.51.12,2.72.12h3.74l.5-.69c.15-.21.23-.23.29-.23.1,0,.29.15.36.21l.98.67c.06.04.17.15.17.29,0,.19-.15.21-.29.21h-2.01v2.26h.58l.65-.73c.17-.21.19-.23.29-.23.08,0,.1.02.35.19l1.04.73c.06.04.19.15.19.29,0,.17-.15.21-.29.21Zm-4.22-2.72h-1.44c-.04,1.27-.06,1.86-.1,2.26h1.55l-.02-2.26Zm6.48-6.48v3.91c0,2.46.06,6.37.06,8.8,0,.73-.02,1.98-2.15,2.38-.42-.9-.73-1.38-1.9-2.03v-.15c.31,0,1.63.06,1.9.06.5,0,.59-.13.59-.69,0-3.51,0-4.01-.02-8.48h-3.43c.02.21-.04.4-.17.56-.15.17-.59.31-.9.31-.34,0-.5-.17-.5-.48,0-.21.06-1.17.06-1.36,0-.5-.02-2.76-.02-3.22s-.08-.98-.15-1.57l1.82.92h3.11l.48-.5c.1-.1.23-.23.36-.23s.21.08.33.15l.94.67c.1.06.19.17.19.31s-.06.19-.59.65Zm-1.52-.59h-3.45v1.63h3.45v-1.63Zm0,2.09h-3.45v1.84h3.45v-1.84Z"/><path d="m723.06,21.43c.08-.12.17-.25.36-.25.11,0,.21.08.33.15l1.02.71c.1.06.21.17.21.35s-.13.29-.69.61c-.1,2.03-.81,5.14-1.4,6.69,1.86.98,2.07,2.09,2.07,2.49,0,.56-.44.84-.86.84-.52,0-.58-.1-1.59-1.71-.13-.19-.19-.27-.27-.36-1.11,1.82-2.86,3.16-4.87,3.87l-.08-.13c2.51-1.71,3.7-4.3,3.93-4.8-.73-.63-1.32-.86-1.63-.98-.23,1.05-.35,1.59-1.21,1.59-.06,0-.81,0-.81-.63,0-.06,0-.12.06-.31.63-1.98.75-2.49,1.82-7.08-.94,0-1.4.08-1.78.13l-.31-.71c.83.08,1.36.1,2.21.12.73-3.24.73-3.38.67-4.62l2.11.94c.15.06.23.1.23.23,0,.12-.1.17-.21.25-.08.06-.44.25-.52.29-.08.33-.11.48-.17.67-.08.35-.44,1.94-.52,2.24h1.44l.46-.61Zm-2.01,1.07c-.46,2.05-1.02,4.49-1.4,6.12.27.06.86.15,1.9.5.5-1.32.96-3.59,1.21-6.62h-1.71Zm9.25-1.94c2.13.73,4.35,2.24,4.35,4.01,0,.69-.56,1.02-.94,1.02-.52,0-.73-.5-.92-.92-.17-.42-.5-1.11-.56-1.27-1.29.56-4.6,1.53-5.97,1.92-.23.44-.33.59-.61.59-.1,0-.15-.04-.25-.27l-.84-2.07c.52.11.81.13,1.52.11.82-1.78,2.05-4.51,2.05-5.79,0-.1,0-.21-.04-.48l2.21,1.07c.1.06.19.15.19.27,0,.23-.08.25-.71.52-.96,1.61-2.49,3.51-3.3,4.39,1.88-.12,3.74-.25,5.56-.61-.17-.33-.92-1.67-1.82-2.34l.08-.15Zm1.32,6.46l.59-.63c.17-.19.27-.23.35-.23.12,0,.15.02.44.25l.77.61c.13.1.25.21.25.4,0,.17-.04.21-.54.61-.06,1.4,0,3.28.04,4.22.02.21.13,1.19.13,1.38,0,.88-1.11.88-1.21.88-.58,0-.58-.33-.58-1.04v-.23h-4.62s.04.46.04.5c0,.82-.94.82-1.04.82-.42,0-.61-.23-.61-.67,0-.38.04-.98.04-1.36,0-1.46-.02-5.01-.11-6.33l1.76.81h4.3Zm-4.37.46v5.29h4.62v-5.29h-4.62Z"/><path d="m757.29,22.65c-.06,0-2.72-.29-2.97-.33-.46-.06-.96-.06-1.21-.06-.4,0-1.13.02-2.19.13,0,.23-.02.58-.02,1.09,0,.29,0,.71.08,1.34.34.56,1.02,1.63,1.02,3.38,0,2.82-2.01,5.68-5.62,6.79l-.1-.15c1.99-1.09,3.76-3.74,3.95-5.54-.5.56-.83.88-1.32.88-1.19,0-2.15-1.34-2.15-2.92,0-1.4.82-3.07,2.19-3.07.33,0,.67.08,1.09.19.02-.21.02-.31.02-.5-.02-.21-.06-1.19-.06-1.38-2.4.38-4.39.73-6.33,1.92-.19.12-.36.17-.56.17-.77,0-1.63-1.25-1.63-2.13,0-.33.12-.48.23-.63.23.29.65.88,1.38.88.33,0,1-.12,1.11-.13,3.78-.67,4.18-.75,5.75-.94-.12-2.86-.27-3.05-1.88-3.57.19-.17.58-.56,1.32-.56.61,0,2.07.56,2.07,1.17,0,.06-.15.75-.17.82-.11.46-.21.98-.31,2.01.58-.08,5.16-.63,5.2-.63.63,0,1.84.36,1.84,1.09,0,.44-.31.65-.75.65Zm-8.55,2.51c-.61,0-1.23.73-1.23,1.82,0,.96.61,1.86,1.32,1.86s1.29-.86,1.29-1.9-.54-1.78-1.38-1.78Z"/><path d="m772.95,33.53c-1.8,0-3.87-.67-3.87-2.36,0-1.34,1.4-1.76,2.26-1.76,1.75,0,2.7,1.52,3.05,2.55,1.13-.23,2.34-1.65,2.34-3.22,0-1.4-1.02-2.8-3.01-2.8-2.84,0-4.91,1.98-6.39,4.28-.5.77-.61.96-1,.96-.48,0-.84-.38-.84-.98s.25-.84,1.3-1.9c1.13-1.11,3.22-3.86,5.24-6.58.29-.38.98-1.34.98-1.67,0-.1-.08-.13-.15-.13-.15,0-1.25.38-2.69,1.15-.27.15-.77.4-.83.4-.33,0-1.59-.52-1.59-1.76,0-.48.15-.79.27-1,.67.98.94.98,1.5.98,1.05,0,3.41-.75,3.53-.81.46-.17.52-.19.67-.19.77,0,1.5,1,1.5,1.4,0,.44-.13.54-.77,1-.19.15-.38.33-.71.67-3.24,3.55-3.61,3.93-4.05,4.74,1.21-.61,2.49-1.19,4.35-1.19,3.3,0,4.43,1.9,4.43,3.57,0,2.01-1.8,4.66-5.52,4.66Zm-2.21-3.3c-.33,0-.86.29-.86.81,0,1.04,1.98,1.48,2.51,1.48.33,0,.48-.06.65-.12-.52-1.59-1.78-2.17-2.3-2.17Z"/><path d="m797.41,21.52c-.56.21-3.43.79-4.39.96-.06.96-.06,1.42-.06,2.51.4-.1,2.34-.75,2.55-.75.38,0,1.25.19,1.25.79,0,.35-.25.44-.38.48-.17.06-2.01.52-3.39.77.08,1.73.1,2.51.58,4.03.79.12,2.15.35,3.41,1.42.23.19.58.5.58,1.06,0,.4-.23.84-.69.84-.33,0-.48-.12-1.04-.54-.84-.63-1.4-.94-2.21-1.3-.12.69-.4,2.47-3.45,2.47-1.99,0-3.4-1.07-3.4-2.17,0-1.92,2.95-2.11,4.1-2.11.48,0,.81.02,1.15.06-.12-.5-.27-1.11-.31-3.55-.33.04-1.23.13-2.3.13-1.5,0-2.36-.23-2.36-.98,0-.58.88-1.19,1.55-1.19-.25.36-.35.5-.35.75,0,.19.13.29.63.29.84,0,1.96-.1,2.8-.23,0-1,0-1.02.06-2.57-1.21.15-2.07.21-2.74.21-2.26,0-2.78-.38-3.41-1.73.9.36,1.5.59,2.82.59.5,0,1.57-.06,3.38-.35,0-.21.04-1.4.04-1.5,0-.73-.1-1.13-1.52-1.55.42-.52.82-.58,1.23-.58.71,0,2.24.44,2.24,1.38,0,.17-.04.25-.33.98-.19.5-.23.71-.29.98.31-.08.83-.21,1.59-.46.27-.1,1.44-.56,1.67-.56.56,0,1.32.38,1.32.88,0,.25-.11.42-.34.52Zm-7.56,9.55c-.96,0-2.44.38-2.44,1.07,0,.27.4.86,1.94.86.65,0,1.46-.13,2.03-.44.52-.29.59-.81.63-1.27-.56-.21-1.55-.23-2.17-.23Z"/><path d="m818.85,21.18c-1.13,0-2.51,0-3.45.29-1.99.61-4.14,3.13-4.14,5.98,0,.92.4,2.84,3.03,3.64.4.11,2.28.48,2.61.67.46.27.65.59.65,1,0,.73-.59.73-.96.73-.48,0-1.96-.25-3.38-.92-2.84-1.36-2.95-3.76-2.95-4.7,0-2.95,1.76-4.8,3.87-6.58-1.04-.1-4.56,1.3-6.21,2.07-.96.44-1.07.48-1.34.48-.54,0-1.52-.59-1.52-1.82,0-.63.27-.98.42-1.21.4.86.86,1.13,1.53,1.13.61,0,9.49-2.11,9.92-2.24.77-.27,1.15-.38,1.48-.38.9,0,1.8.58,1.8,1.15,0,.71-.59.71-1.36.71Zm-.54,4.83c-.5,0-.65-.29-1.02-1.04-.25-.5-.94-1.38-1.48-1.99,1.13.33,3.13.9,3.13,2.28,0,.33-.15.75-.63.75Zm2.21-.88c-.42,0-.59-.29-1.04-1.11-.44-.81-1.23-1.38-1.67-1.69,1.42.08,3.38.9,3.38,2.09,0,.52-.42.71-.67.71Z"/><path d="m835.2,32.76c1.4-.54,6.02-2.36,6.02-7.06,0-2.67-1.73-5.14-5.52-5.14-.58,0-.96.06-1.21.1,1.29.56,1.65,1.36,1.65,1.65,0,.27-1.42,3.4-2.47,5.37-1.99,3.76-2.65,3.89-3.18,3.89-.42,0-.63-.29-1.23-1.13-.27-.38-.35-.44-.77-.81-.58-.48-.86-1.5-.86-2.22,0-4.12,3.57-7.48,8.23-7.48,3.93,0,7.15,2.26,7.15,6.06,0,3.99-3.45,6.52-7.81,6.9v-.13Zm-6.16-5.7c0,1.23.58,2.88,1.29,2.88.61,0,1.36-1.42,1.76-2.17.61-1.17,2.32-4.64,2.32-5.79,0-.13-.02-.65-.65-1.21-2.61.59-4.72,3.82-4.72,6.29Z"/><path d="m858.41,18.91c.08.06.12.13.12.29,0,.21-.58.59-.67.67,0,.59.08,3.51.08,4.18,0,.56-.71.77-1.13.77-.36,0-.5-.29-.5-.52,0-.11.02-.21.04-.33h-3.15c.02,1.84.02,3.97.02,5.52,0,.9,0,3.07.08,3.89.02.21.02.35.02.4,0,.75-.98.86-1.15.86-.58,0-.58-.4-.58-.54,0-.33.12-1.9.13-2.26.06-1.86.06-2.9.06-12.14,0-.73-.04-1.13-.21-2.01l1.98.94h2.57l.63-.52c.13-.12.23-.17.33-.17.08,0,.17.08.23.12l1.11.84Zm-5.22,2.07h3.16v-1.88h-3.16v1.88Zm0,2.53h3.16v-2.07h-3.16v2.07Zm7.13,2.65l.36-.52c.1-.15.17-.25.36-.25.11,0,.27.13.35.19l.75.63c.13.12.17.15.17.25,0,.12-.12.23-.56.65,0,1.21,0,2.53.06,3.39,0,.15.08.84.08.98,0,.77-.71.9-1.23.9-.29,0-.38-.13-.38-.44,0-.11.04-.4.04-.52h-3.49c.02.15.04.36.04.48,0,.77-1,.77-1.06.77-.52,0-.52-.42-.52-.58,0-.46.15-3.78.15-4.49,0-.98-.08-1.5-.15-2.19l1.55.73h3.47Zm-3.49.46v1.88h3.51v-1.88h-3.51Zm0,2.34v2.01h3.51v-2.01h-3.51Zm7.46-10.32l.54-.5c.17-.17.27-.23.42-.23.11,0,.19.06.29.13l1,.86c.1.08.17.21.17.31s-.1.21-.27.35c-.21.17-.31.25-.48.38,0,1.19.06,12.6-.02,13.12-.06.48-.33,1.36-2.4,1.9-.21-.9-.63-1.73-2.11-2.36l.06-.13c1.29.12,2.03.13,2.21.13.79,0,.79-.25.79-.73v-7.9h-3.22c.06.73-.82.84-1.06.84-.56,0-.56-.4-.56-.58,0-.21.1-3.95.1-4.7,0-.9-.04-1.28-.12-1.8l1.88.9h2.78Zm-3.05.46v1.88h3.24v-1.88h-3.24Zm0,2.34v2.07h3.24v-2.07h-3.24Z"/><path d="m877.43,30.94c-.02.19-.04.42-.04.63,0,.23.17,1.21.17,1.4,0,.23,0,.73-.67.73-1.71,0-1.84-4.09-1.84-5.01,0-1.88.31-3.78.52-4.97.23-1.19.44-2.34.44-2.63,0-.25,0-.71-.81-1.52.27-.19.48-.19.61-.19.96,0,2.05.82,2.05,1.73,0,.27-.08.44-.29.94-1.36,3.03-1.4,5.18-1.4,5.95,0,.25.04,1.94.33,1.94.08,0,.15-.04.29-.33.08-.21.79-1.86,1.42-3.59l.21.04s-1,4.85-1,4.87Zm11.7,1.8c-.29,0-.54-.1-1.09-.52-.94-.75-1.3-.98-1.63-1.17-.19.56-.69,2.19-3.16,2.19-1.19,0-3.15-.52-3.15-2.13,0-1.38,1.3-2.07,3.24-2.07.79,0,1.36.1,1.9.17-.1-1.32-.15-2.51-.25-5.18-.65.1-1.13.12-1.55.12-1.84,0-2.93-.71-3.28-1.5,1.52.33,1.94.4,2.57.4.23,0,1.13-.04,2.23-.21-.1-2.49-.12-2.78-.23-3.07-.13-.33-.82-.56-1.27-.69.33-.4.82-.63,1.34-.63.46,0,1.82.42,1.82,1.19,0,.13-.21,1.02-.25,1.17-.13.59-.17,1.17-.19,1.78.13-.02.36-.08.65-.17.13-.04,1.15-.35,1.63-.35.29,0,1.11.19,1.11.71,0,.31-.23.5-.48.58-.61.21-1.52.4-2.93.54.06,2.26.25,4.49.36,5.7,1.13.4,2.03.86,2.47,1.13.44.29.81.59.81,1.15,0,.65-.4.86-.67.86Zm-6.23-2.7c-1.06,0-2.17.25-2.17.92,0,.35.44.98,1.96.98.86,0,2.19-.21,2.36-1.57-.38-.15-.9-.33-2.15-.33Z"/><path d="m900.43,34.26c-.67,0-.79-.29-1.38-1.65-.77-1.75-2.07-2.7-2.55-3.07l.1-.21c1.32.31,2.38.56,3.61,1.5.15.12,1.29.98,1.29,2.15,0,.52-.25,1.29-1.05,1.29Z"/><path d="m926.66,33.97c-.1.13-.5.82-.59.98-3.62-1.34-5.6-3.3-6.41-5.04-1.52,3.99-5.73,4.8-8.67,5.01l-.11-.15c4.01-1.21,6.29-2.92,7.25-5.24h-4.72c-1.34,0-1.71.08-2.07.13l-.33-.71c.92.08,1.82.12,2.74.12h4.53c.15-.5.25-1.06.25-1.57,0-.19-.02-.35-.08-.63l1.84.61c.12.04.35.15.35.35s-.25.31-.48.4c-.1.4-.13.54-.21.84h4.32l.59-1.04c.06-.1.15-.29.31-.29.1,0,.12.02.35.19l1.42,1.09c.08.06.19.17.19.29,0,.21-.19.21-.29.21h-7.04c2.07,3.11,6.56,3.28,8.02,3.32v.15c-.38.17-.59.27-1.15.98Zm-7.46-13.66h-3.07v2.19h.71l.56-.69c.13-.17.19-.25.29-.25s.13.04.36.21l.88.69c.11.08.19.19.19.29,0,.19-.17.21-.29.21h-2.7v1.99c1.9-.4,2.32-.5,2.99-.67v.17c-.63.35-1.69.9-3.36,1.52-.75.29-2.7,1.02-3.2,1.27-.29.65-.33.73-.5.73-.13,0-.23-.17-.27-.29l-.86-2.23c.61.04,1.61.1,3.68-.25v-2.24c-1.19,0-1.65.02-2.28.13l-.31-.71c.86.08,1.09.08,2.59.12,0-.54,0-.96-.02-2.19h-.73c-1.17,0-1.59.04-2.07.13l-.31-.71c1.17.1,2.51.12,2.72.12h.38c-.02-1.11-.04-1.25-.25-2.59l2.03.65c.23.08.4.13.4.29,0,.13-.38.44-.65.67v.98h.9l.59-.88c.06-.1.17-.25.29-.25.08,0,.15.04.36.21l1.04.88c.1.08.19.15.19.29,0,.17-.17.21-.31.21Zm7.21-.29c-.13,2.69-.23,4.07-.56,5.24-.44,1.57-1.78,2.03-2.78,2.11-.04-.48-.1-1.19-1.55-2.24l.1-.15c.44.12,1.19.33,1.78.33.84,0,1.02-.71,1.04-.82.12-.56.56-3.66.48-4.99h-2.13c-.4,3.97-1.23,6.52-5.95,7.92l-.04-.17c3.43-2.11,4.18-4.6,4.18-7.75-.12,0-.67.02-1.25.11l-.33-.69c.92.08,1.82.12,2.74.12h2.49l.56-.56c.17-.17.25-.25.36-.25.1,0,.21.1.29.15l.98.77c.08.06.21.15.21.27,0,.21-.44.48-.63.61Z"/><path d="m942.25,20.98c.27.13.35.23.35.36,0,.23-.1.25-.83.44-.59.59-2.99,3.41-3.53,3.95.17-.02,1.65-.1,2.49-.21-.35-.59-.56-.81-.79-1.04l.08-.1c1.36.38,2.88,1.28,2.88,2.36,0,.44-.27.86-.79.86-.63,0-.75-.33-.86-.67-.04-.13-.23-.75-.27-.88l-1.52.36c0,.63.04,3.97.04,4.07.04,1.13.12,3.22.12,3.4,0,.25,0,.96-1.06.96-.63,0-.63-.36-.63-.58,0-.17.02-.38.02-.58.08-2.82.08-3.22.1-6.94-.4.08-2.03.46-2.23.52-.1.11-.19.21-.27.33-.1.15-.15.27-.31.27-.23,0-.33-.21-.36-.4l-.44-1.8c.54.12.9.13,1.71.13.5,0,1-.02,1.46-.04,1.06-1.5,2.47-4.24,2.72-4.95.08-.25.1-.52.1-.77l1.82.94Zm-7.58,12.66c.31-.81,1.25-3.34,1.25-5.83l1.67.65c.17.06.31.15.31.31,0,.19-.21.29-.54.44-.56,1.67-1.15,2.78-2.57,4.49l-.12-.06Zm.61-12.6c1.17.23,1.71.48,1.76.52.52-1.19,1.21-3.13,1.17-4.33l1.96.98c.1.04.27.15.27.33,0,.27-.31.33-.71.4-1.11,1.34-1.25,1.5-2.4,2.76.61.33,1.21.86,1.21,1.57,0,.44-.27,1.02-.88,1.02-.54,0-.63-.19-1.11-1.25-.31-.69-.59-1.13-1.32-1.88l.06-.12Zm4.47,7.19c1.67.65,2.92,1.36,2.92,2.59,0,.73-.54,1.02-.92,1.02-.63,0-.77-.52-1.04-1.44-.19-.61-.63-1.53-1.04-2.07l.08-.1Zm8.98-6.08l.67-.59c.13-.13.21-.19.31-.19s.15.04.33.19l.88.73c.11.1.21.17.21.33s-.52.63-.65.75c-.02.29-.04.75-.15,4.85-.02.35-.17,4.78-2.23,6.08-.38.25-1.11.54-1.92.52-.17-1.27-1.23-2.05-1.67-2.38l.06-.15c1.15.31,2.24.42,2.53.42.36,0,.65,0,1.15-1.34.75-1.98.71-6.54.65-8.75h-4.79c-.96,1.65-1.65,2.32-2.01,2.69l-.12-.08c1.65-3.32,1.96-6.35,1.96-6.96,0-.27-.04-.54-.08-.82l2.23.98c.21.1.29.19.29.31,0,.17-.08.21-.77.5-.56,1.63-1.11,2.67-1.25,2.93h4.37Zm-5.1,3.61c2.55.88,2.93,1.69,2.93,2.44,0,.69-.5.96-.92.96-.61,0-.79-.46-1.02-1.19-.17-.52-.44-1.29-1.07-2.11l.08-.1Z"/><path d="m970.24,21.52c-.56.21-3.43.79-4.39.96-.06.96-.06,1.42-.06,2.51.4-.1,2.34-.75,2.55-.75.38,0,1.25.19,1.25.79,0,.35-.25.44-.38.48-.17.06-2.01.52-3.4.77.08,1.73.1,2.51.58,4.03.79.12,2.15.35,3.41,1.42.23.19.58.5.58,1.06,0,.4-.23.84-.69.84-.33,0-.48-.12-1.04-.54-.84-.63-1.4-.94-2.21-1.3-.12.69-.4,2.47-3.45,2.47-1.99,0-3.39-1.07-3.39-2.17,0-1.92,2.95-2.11,4.1-2.11.48,0,.81.02,1.15.06-.11-.5-.27-1.11-.31-3.55-.33.04-1.23.13-2.3.13-1.5,0-2.36-.23-2.36-.98,0-.58.88-1.19,1.55-1.19-.25.36-.34.5-.34.75,0,.19.13.29.63.29.84,0,1.96-.1,2.8-.23,0-1,0-1.02.06-2.57-1.21.15-2.07.21-2.74.21-2.26,0-2.78-.38-3.41-1.73.9.36,1.5.59,2.82.59.5,0,1.57-.06,3.38-.35,0-.21.04-1.4.04-1.5,0-.73-.1-1.13-1.52-1.55.42-.52.83-.58,1.23-.58.71,0,2.24.44,2.24,1.38,0,.17-.04.25-.33.98-.19.5-.23.71-.29.98.31-.08.82-.21,1.59-.46.27-.1,1.44-.56,1.67-.56.56,0,1.32.38,1.32.88,0,.25-.12.42-.35.52Zm-7.56,9.55c-.96,0-2.44.38-2.44,1.07,0,.27.4.86,1.94.86.65,0,1.46-.13,2.03-.44.52-.29.59-.81.63-1.27-.56-.21-1.55-.23-2.17-.23Z"/><path d="m986.51,22.17c-1.46.59-2.42.88-2.95,1.04-1,2.93-2.74,7.42-3.43,8.86-.58,1.21-.75,1.38-1.19,1.38-.48,0-.75-.52-.75-.96,0-.38.06-.52.69-1.57,1.63-2.76,2.49-4.76,3.38-7.38-.63.13-1.53.29-2.23.29-1.32,0-1.94-.82-2.07-1.55.42.17.96.38,1.82.38.94,0,1.96-.21,2.9-.46.35-1.17.52-2.07.52-2.53,0-.69-1.07-1.15-1.36-1.21.17-.19.38-.42.98-.42.94,0,2.28.82,2.28,1.61,0,.29-.1.44-.42.94-.25.35-.42.77-.56,1.13.19-.08.77-.31,1.25-.63.65-.42.73-.46,1-.46.75,0,.96.54.96.81,0,.4-.52.63-.81.75Zm3.87,11.39c-.35,0-2.07-.02-3.41-.4-1.75-.5-2.28-1.44-2.28-2.47,0-.56.13-1.23.54-1.63-.04.73.17,1.44.67,1.98.59.67,1.52.88,3.26.88.69,0,1.38-.1,2.07-.19.34-.06.44-.08.58-.08.54,0,1.11.63,1.11,1.07,0,.84-2.03.84-2.53.84Zm2.13-8.06c-.13,0-1.4-.17-1.65-.17-.52,0-2.15.63-2.63.9l-.08-.1c.12-.1,1.07-.84,1.59-1.25.19-.15.25-.27.25-.36,0-.5-1.76-.69-3.22-.59,1.02-.9,2.7-.9,2.92-.9,2.03,0,3.41,1.04,3.41,1.84,0,.44-.29.63-.59.63Z"/><path d="m1003.39,30.94c-.02.19-.04.42-.04.63,0,.23.17,1.21.17,1.4,0,.23,0,.73-.67.73-1.71,0-1.84-4.09-1.84-5.01,0-1.88.31-3.78.52-4.97.23-1.19.44-2.34.44-2.63,0-.25,0-.71-.81-1.52.27-.19.48-.19.61-.19.96,0,2.05.82,2.05,1.73,0,.27-.08.44-.29.94-1.36,3.03-1.4,5.18-1.4,5.95,0,.25.04,1.94.33,1.94.08,0,.15-.04.29-.33.08-.21.79-1.86,1.42-3.59l.21.04s-1,4.85-1,4.87Zm11.7,1.8c-.29,0-.54-.1-1.09-.52-.94-.75-1.3-.98-1.63-1.17-.19.56-.69,2.19-3.16,2.19-1.19,0-3.15-.52-3.15-2.13,0-1.38,1.3-2.07,3.24-2.07.79,0,1.36.1,1.9.17-.1-1.32-.15-2.51-.25-5.18-.65.1-1.13.12-1.55.12-1.84,0-2.93-.71-3.28-1.5,1.52.33,1.94.4,2.57.4.23,0,1.13-.04,2.23-.21-.1-2.49-.12-2.78-.23-3.07-.13-.33-.82-.56-1.27-.69.33-.4.82-.63,1.34-.63.46,0,1.82.42,1.82,1.19,0,.13-.21,1.02-.25,1.17-.13.59-.17,1.17-.19,1.78.13-.02.36-.08.65-.17.13-.04,1.15-.35,1.63-.35.29,0,1.11.19,1.11.71,0,.31-.23.5-.48.58-.61.21-1.52.4-2.93.54.06,2.26.25,4.49.36,5.7,1.13.4,2.03.86,2.47,1.13.44.29.81.59.81,1.15,0,.65-.4.86-.67.86Zm-6.23-2.7c-1.06,0-2.17.25-2.17.92,0,.35.44.98,1.96.98.86,0,2.19-.21,2.36-1.57-.38-.15-.9-.33-2.15-.33Z"/><path d="m1031.97,25.19v7.29c0,.73-.15,1.3-.59,1.71-.75.69-1.46.82-1.98.86-.04-.19-.21-.82-.4-1.13-.48-.79-1.63-1.27-2.01-1.44v-.13c1.02.19,2.51.27,2.76.27.35,0,.63-.15.63-.56v-6.87h-5.6c-1.19,0-1.59.04-2.09.13l-.31-.71c1.17.1,2.53.11,2.74.11h10.97l1.11-.92c.17-.15.19-.17.29-.17s.29.13.34.19l1.38,1.21c.13.12.23.29.23.4,0,.38-.73.42-1.61.46-1.02.75-3.26,2.11-4.45,2.57l-.06-.08c.42-.44,2.17-2.57,2.53-3.2h-3.89Zm-4.18-4.56c1.4-.02,2.72.48,3.87,1.27.81-.71.94-.84,2.36-2.42h-7.44c-1.17,0-1.59.04-2.07.13l-.31-.71c1.15.1,2.51.12,2.72.12h7.19l.86-.67c.13-.1.33-.25.4-.25s.23.12.35.19l1.48,1.11c.1.08.17.21.17.36,0,.19-.1.35-.29.4-.21.06-1.17.08-1.36.1-.9.59-2.84,1.57-3.7,1.92.33.29.69.63.69,1.3,0,.44-.23,1.19-1.02,1.19-.38,0-.46-.12-.92-.79-1.32-1.9-2.49-2.74-3.05-3.15l.06-.12Z"/><path d="m1054.35,20.98c.27.13.35.23.35.36,0,.23-.1.25-.83.44-.59.59-2.99,3.41-3.53,3.95.17-.02,1.65-.1,2.49-.21-.35-.59-.56-.81-.79-1.04l.08-.1c1.36.38,2.88,1.28,2.88,2.36,0,.44-.27.86-.79.86-.63,0-.75-.33-.86-.67-.04-.13-.23-.75-.27-.88l-1.52.36c0,.63.04,3.97.04,4.07.04,1.13.12,3.22.12,3.4,0,.25,0,.96-1.06.96-.63,0-.63-.36-.63-.58,0-.17.02-.38.02-.58.08-2.82.08-3.22.1-6.94-.4.08-2.03.46-2.23.52-.1.11-.19.21-.27.33-.1.15-.15.27-.31.27-.23,0-.33-.21-.36-.4l-.44-1.8c.54.12.9.13,1.71.13.5,0,1-.02,1.46-.04,1.06-1.5,2.47-4.24,2.72-4.95.08-.25.1-.52.1-.77l1.82.94Zm-7.58,12.66c.31-.81,1.25-3.34,1.25-5.83l1.67.65c.17.06.31.15.31.31,0,.19-.21.29-.54.44-.56,1.67-1.15,2.78-2.57,4.49l-.12-.06Zm.61-12.6c1.17.23,1.71.48,1.76.52.52-1.19,1.21-3.13,1.17-4.33l1.96.98c.1.04.27.15.27.33,0,.27-.31.33-.71.4-1.11,1.34-1.25,1.5-2.4,2.76.61.33,1.21.86,1.21,1.57,0,.44-.27,1.02-.88,1.02-.54,0-.63-.19-1.11-1.25-.31-.69-.59-1.13-1.32-1.88l.06-.12Zm4.47,7.19c1.67.65,2.92,1.36,2.92,2.59,0,.73-.54,1.02-.92,1.02-.63,0-.77-.52-1.04-1.44-.19-.61-.63-1.53-1.04-2.07l.08-.1Zm8.98-6.08l.67-.59c.13-.13.21-.19.31-.19s.15.04.33.19l.88.73c.11.1.21.17.21.33s-.52.63-.65.75c-.02.29-.04.75-.15,4.85-.02.35-.17,4.78-2.23,6.08-.38.25-1.11.54-1.92.52-.17-1.27-1.23-2.05-1.67-2.38l.06-.15c1.15.31,2.24.42,2.53.42.36,0,.65,0,1.15-1.34.75-1.98.71-6.54.65-8.75h-4.79c-.96,1.65-1.65,2.32-2.01,2.69l-.12-.08c1.65-3.32,1.96-6.35,1.96-6.96,0-.27-.04-.54-.08-.82l2.23.98c.21.1.29.19.29.31,0,.17-.08.21-.77.5-.56,1.63-1.11,2.67-1.25,2.93h4.37Zm-5.1,3.61c2.55.88,2.93,1.69,2.93,2.44,0,.69-.5.96-.92.96-.61,0-.79-.46-1.02-1.19-.17-.52-.44-1.29-1.07-2.11l.08-.1Z"/><path d="m1078.54,32.76c1.4-.54,6.02-2.36,6.02-7.06,0-2.67-1.73-5.14-5.52-5.14-.58,0-.96.06-1.21.1,1.29.56,1.65,1.36,1.65,1.65,0,.27-1.42,3.4-2.47,5.37-1.99,3.76-2.65,3.89-3.18,3.89-.42,0-.63-.29-1.23-1.13-.27-.38-.35-.44-.77-.81-.58-.48-.86-1.5-.86-2.22,0-4.12,3.57-7.48,8.23-7.48,3.93,0,7.15,2.26,7.15,6.06,0,3.99-3.45,6.52-7.81,6.9v-.13Zm-6.16-5.7c0,1.23.58,2.88,1.29,2.88.61,0,1.36-1.42,1.76-2.17.61-1.17,2.32-4.64,2.32-5.79,0-.13-.02-.65-.65-1.21-2.61.59-4.72,3.82-4.72,6.29Z"/><path d="m1100.22,20.33c-.02-1.07-.06-1.94-.38-3.18l2.11.54c.19.06.46.12.46.33,0,.25-.33.44-.58.58-.04,1-.04,1.34-.06,1.75h4.03l.56-.58c.12-.12.21-.23.33-.23.13,0,.23.1.4.27l.81.75c.12.12.19.23.19.36,0,.29-.33.46-.58.58-.06,1.29.13,7,.13,8.17,0,.69-.73.88-1.07.88-.75,0-.73-.44-.71-1.23h-4.07c0,.5-.04,4.72-.06,4.91-.04.42-.38.82-1,.82-.75,0-.75-.52-.75-.71,0-.31.1-1.61.1-1.88.06-1.53.08-2.69.1-3.15h-3.82c.02.44.02.56-.06.71-.19.4-.67.61-1.11.61-.15,0-.79-.04-.79-.67,0-.17.02-.38.04-.52.12-1.32.15-5.31.15-6.12,0-2.53-.06-3.22-.29-4.03l2.17,1.04h3.74Zm-3.87.46v3.74h3.87c.02-2.4.02-2.82,0-3.74h-3.87Zm0,4.2v3.86h3.84c0-.27.04-3.36.04-3.86h-3.87Zm9.53-.46v-3.74h-4.1c-.02.88-.02,1.17,0,3.74h4.1Zm0,4.32v-3.86h-4.1c.02,2.46.02,2.74.02,3.86h4.09Z"/><path d="m1120.4,33.84c-3.07,0-3.55-1.94-3.55-4.99,0-.56.23-6.83.23-8.11s-.19-1.53-1.75-1.96c.59-.63,1.52-.63,1.65-.63,1.11,0,2.24.98,2.24,1.5,0,.19-.23.96-.27,1.11-.77,3.68-.77,8.92-.77,9.09,0,1.63,0,2.67,2.03,2.67,2.47,0,7.15-2.13,8.71-3.57l.11.12c-2.36,4.35-7.13,4.78-8.65,4.78Z"/><path d="m1151.55,34.32c-.88,0-4.76-.02-5.54-.06-2.05-.08-4.37-.36-6.18-2.78-.29.29-2.11,1.96-2.69,2.61-.04.21-.08.46-.33.46-.06,0-.21-.08-.29-.21l-1.21-2.03c.98,0,1.94,0,3.32-.61v-5.7h-.9c-1.19,0-1.61.04-2.09.13l-.31-.71c1.07.1,2.22.11,2.99.11l.79-.73c.06-.06.27-.25.31-.25.08,0,.15.06.29.17l.94.81c.12.1.21.21.21.31,0,.13-.42.46-.69.67-.04,1.27-.04,1.48-.04,3.28,0,.67,0,1.63,1.23,2.24,1.19.59,2.44.71,4.28.71,2.4,0,4.83-.17,7.13-.94l.02.08c-.88.94-1,1.21-1.25,2.44Zm-11.93-12.72c-.61,0-.75-.42-.98-1.15-.5-1.5-.9-2.01-1.34-2.44l.1-.13c1.76.46,3.18,1.5,3.18,2.7,0,.77-.61,1.02-.96,1.02Zm10.97,9.51c-2.26-1.75-3.57-4.37-4.3-7.14-.92,2.74-2.4,5.2-5.93,6.71l-.08-.12c1.88-1.27,4.14-4.51,4.87-9.11l.65.15c-.17-1.11-.17-1.44-.23-2.7h-1.38c-1.17,0-1.59.06-2.07.13l-.33-.71c1.17.11,2.53.11,2.74.11h.48l.88-.86c.15-.15.21-.19.27-.19.08,0,.19.1.23.12l1.13.88c.23.17.29.27.29.38,0,.21-.25.36-.42.44-.63.31-.71.33-1.07.56.02,7,4.72,9.36,6.67,9.55v.1c-1.19.48-1.21.5-2.42,1.69Z"/><path d="m1174.34,31.21c-.29,0-.52-.1-.96-.48-.59-.5-1.44-1.19-2.3-1.73-1.06,2.07-2.59,4.05-4.97,5.04l-.04-.06c1.82-1.69,3.07-4.18,3.72-5.75-1.59-.81-2.84-1.23-4.51-1.36-.52,1.05-2.61,5.35-4.41,5.35-1.07,0-1.71-1.63-1.71-2.55,0-2.46,3.13-3.51,5.22-3.66,1.25-2.95,2.01-5.5,2.01-5.64,0-.12-.11-.25-.27-.25-.44,0-1.99,1.36-2.4,1.36-.46,0-1.3-.88-1.3-1.78,0-.56.29-.82.46-.98.15.52.61.94,1.07.94.35,0,1.57-.31,2.55-.71.17-.08.75-.31.9-.31.4,0,1.32.71,1.32,1.25,0,.27-.1.4-.54.94-.63.77-2.26,4.7-2.44,5.1,1.52.13,3.03.48,4.47,1,.08-.25.4-1.36.4-1.98s-.31-1.07-.73-1.67c.15-.06.36-.15.67-.15.67,0,1.82.98,1.82,1.76,0,.46-.5,2.07-.71,2.65,1.34.61,3.4,1.69,3.4,2.78,0,.75-.5.88-.75.88Zm-10.7-4.33c-.42,0-3.57.56-3.57,2.42,0,.98.67,1.52,1.04,1.52.71,0,2.51-3.09,2.86-3.89-.13-.04-.23-.04-.33-.04Z"/><path d="m1185.71,34.26c-.67,0-.79-.29-1.38-1.65-.77-1.75-2.07-2.7-2.55-3.07l.1-.21c1.32.31,2.38.56,3.61,1.5.15.12,1.29.98,1.29,2.15,0,.52-.25,1.29-1.05,1.29Z"/><path d="m499.06,53.71l.82-.65c.23-.19.25-.21.35-.21.06,0,.13.04.27.17l.98.98c.15.15.21.23.21.35,0,.21-.21.29-.42.36-.17.06-.36.13-.54.21-.56,1.73-1.25,3.53-2.7,5.47,1.21.92,3.07,2,6.31,2.19v.1c-.79.44-1.53,1.07-1.82,2.01-1.09-.42-3.49-1.36-5.41-3.24-2.92,3.03-5.81,3.24-7.27,3.28v-.13c2.03-.52,4.41-1.75,6.39-4.12-1.67-2.09-2.47-4.55-3.01-7.56-.73,8.77-4.45,11.07-6.44,11.66l-.06-.12c4.76-3.47,5.06-11.43,5.24-15.46h-1.13c-1.32,0-1.71.06-2.07.13l-.33-.71c.88.08,1.86.12,2.74.12h6.56l.63-.61c.11-.12.17-.17.27-.17.11,0,.25.15.33.23l.96,1.13c.06.06.15.19.15.31,0,.13-.12.21-.21.27-.1.04-.59.19-.69.27-.15.25-.23.38-.38.79-.15.42-.88,2.51-1.07,2.97h1.36Zm-1.55.46c-.17.36-.42.92-1.04.92-.46,0-.75-.4-.75-.65,0-.15.08-.35.12-.4.06-.11,1.06-2.38,1.9-5.04h-4.37c0,.21-.02,1.67-.02,1.73.46,3.2,1.46,6.35,3.64,8.73.75-1.17,1.75-2.88,2.13-5.27h-1.61Z"/><path d="m525.46,57.18c-.88,0-2.15-1.61-3.24-3.82-.02-.08-.44-.92-.48-.92-.06,0-.1.08-.1.17,0,.31.08.79.1,1.07.02.61.04,1.11.04,1.46,0,1.63-.11,3.43-.75,5.06-.69,1.76-2.57,3.15-4.76,3.15-3.11,0-4.74-2.4-4.74-4.85,0-1.96,1.07-4.05,2.38-5.87.15-.23.9-1.17,1.04-1.36.04-.06.12-.13.12-.23s-.1-.13-.17-.13c-.46,0-1.09.36-1.52.63-.17.11-.4.25-.63.25-.65,0-1.52-.88-1.52-1.8,0-.21.04-.35.13-.61.83.71,1.13.88,1.75.88,1.07,0,1.96-.5,2.72-.92.13-.08.4-.23.63-.23.65,0,1.32.48,1.32.98,0,.36-.33.5-.65.61-.81.31-1.63.82-2.7,2.76-1.13,2.05-1.61,3.68-1.61,5.16,0,2.05,1.17,3.45,2.88,3.45,1.8,0,3.53-1.32,4.33-3.2.86-2.05,1.07-4.41,1.07-5.45s-.23-1.82-.42-2.49c-.27-.96-.35-1.19-.35-1.52,0-.56.46-.77.77-.77.61,0,.73.4,1,1.46.25.96.71,2.76,3.18,4.93.5.42.86.75.86,1.3,0,.06,0,.84-.69.84Zm.12-5.02c-.35,0-.56-.29-.86-.73q-1.13-1.61-1.98-2.28c.31.06,3.45.77,3.45,2.26,0,.5-.33.75-.61.75Zm1.71-1.86c-.33,0-.42-.11-1.19-1.02-.73-.86-1.38-1.25-1.71-1.44,1.48-.13,3.55.69,3.55,1.71,0,.46-.33.75-.65.75Z"/><path d="m540.48,50.33c-.02-1.07-.06-1.94-.38-3.18l2.11.54c.19.06.46.12.46.33,0,.25-.33.44-.58.58-.04,1-.04,1.34-.06,1.75h4.03l.56-.58c.11-.12.21-.23.33-.23.13,0,.23.1.4.27l.81.75c.12.12.19.23.19.36,0,.29-.33.46-.58.58-.06,1.29.13,7,.13,8.17,0,.69-.73.88-1.07.88-.75,0-.73-.44-.71-1.23h-4.07c0,.5-.04,4.72-.06,4.91-.04.42-.38.82-1,.82-.75,0-.75-.52-.75-.71,0-.31.1-1.61.1-1.88.06-1.53.08-2.69.1-3.15h-3.82c.02.44.02.56-.06.71-.19.4-.67.61-1.11.61-.15,0-.79-.04-.79-.67,0-.17.02-.38.04-.52.12-1.32.15-5.31.15-6.12,0-2.53-.06-3.22-.29-4.03l2.17,1.04h3.74Zm-3.87.46v3.74h3.87c.02-2.4.02-2.82,0-3.74h-3.87Zm0,4.2v3.86h3.84c0-.27.04-3.36.04-3.86h-3.87Zm9.53-.46v-3.74h-4.1c-.02.88-.02,1.17,0,3.74h4.1Zm0,4.32v-3.86h-4.1c.02,2.46.02,2.74.02,3.86h4.09Z"/><path d="m560.66,63.84c-3.07,0-3.55-1.94-3.55-4.99,0-.56.23-6.83.23-8.11s-.19-1.53-1.75-1.96c.59-.63,1.52-.63,1.65-.63,1.11,0,2.24.98,2.24,1.5,0,.19-.23.96-.27,1.11-.77,3.68-.77,8.92-.77,9.09,0,1.63,0,2.67,2.03,2.67,2.47,0,7.15-2.13,8.71-3.57l.12.12c-2.36,4.35-7.14,4.78-8.65,4.78Z"/><path d="m591.81,64.32c-.88,0-4.76-.02-5.54-.06-2.05-.08-4.37-.36-6.18-2.78-.29.29-2.11,1.96-2.69,2.61-.04.21-.08.46-.33.46-.06,0-.21-.08-.29-.21l-1.21-2.03c.98,0,1.94,0,3.32-.61v-5.7h-.9c-1.19,0-1.61.04-2.09.13l-.31-.71c1.07.1,2.23.11,2.99.11l.79-.73c.06-.06.27-.25.31-.25.08,0,.15.06.29.17l.94.81c.11.1.21.21.21.31,0,.13-.42.46-.69.67-.04,1.27-.04,1.48-.04,3.28,0,.67,0,1.63,1.23,2.24,1.19.59,2.44.71,4.28.71,2.4,0,4.83-.17,7.14-.94l.02.08c-.88.94-1,1.21-1.25,2.44Zm-11.93-12.72c-.61,0-.75-.42-.98-1.15-.5-1.5-.9-2.01-1.34-2.44l.1-.13c1.76.46,3.18,1.5,3.18,2.7,0,.77-.61,1.02-.96,1.02Zm10.97,9.51c-2.26-1.75-3.57-4.37-4.3-7.14-.92,2.74-2.4,5.2-5.93,6.71l-.08-.12c1.88-1.27,4.14-4.51,4.87-9.11l.65.15c-.17-1.11-.17-1.44-.23-2.7h-1.38c-1.17,0-1.59.06-2.07.13l-.33-.71c1.17.11,2.53.11,2.74.11h.48l.88-.86c.15-.15.21-.19.27-.19.08,0,.19.1.23.12l1.13.88c.23.17.29.27.29.38,0,.21-.25.36-.42.44-.63.31-.71.33-1.07.56.02,7,4.72,9.36,6.67,9.55v.1c-1.19.48-1.21.5-2.42,1.69Z"/><path d="m614.6,61.21c-.29,0-.52-.1-.96-.48-.59-.5-1.44-1.19-2.3-1.73-1.05,2.07-2.59,4.05-4.97,5.04l-.04-.06c1.82-1.69,3.07-4.18,3.72-5.75-1.59-.81-2.84-1.23-4.51-1.36-.52,1.05-2.61,5.35-4.41,5.35-1.07,0-1.71-1.63-1.71-2.55,0-2.46,3.13-3.51,5.22-3.66,1.25-2.95,2.01-5.5,2.01-5.64,0-.12-.12-.25-.27-.25-.44,0-2,1.36-2.4,1.36-.46,0-1.3-.88-1.3-1.78,0-.56.29-.82.46-.98.15.52.61.94,1.07.94.35,0,1.57-.31,2.55-.71.17-.08.75-.31.9-.31.4,0,1.32.71,1.32,1.25,0,.27-.1.4-.54.94-.63.77-2.26,4.7-2.44,5.1,1.52.13,3.03.48,4.47,1,.08-.25.4-1.36.4-1.98s-.31-1.07-.73-1.67c.15-.06.36-.15.67-.15.67,0,1.82.98,1.82,1.76,0,.46-.5,2.07-.71,2.65,1.34.61,3.39,1.69,3.39,2.78,0,.75-.5.88-.75.88Zm-10.7-4.33c-.42,0-3.57.56-3.57,2.42,0,.98.67,1.52,1.04,1.52.71,0,2.51-3.09,2.86-3.89-.13-.04-.23-.04-.33-.04Z"/><path d="m630.18,62.76c1.4-.54,6.02-2.36,6.02-7.06,0-2.67-1.73-5.14-5.52-5.14-.58,0-.96.06-1.21.1,1.29.56,1.65,1.36,1.65,1.65,0,.27-1.42,3.4-2.47,5.37-1.99,3.76-2.65,3.89-3.18,3.89-.42,0-.63-.29-1.23-1.13-.27-.38-.35-.44-.77-.81-.58-.48-.86-1.5-.86-2.22,0-4.12,3.57-7.48,8.23-7.48,3.93,0,7.15,2.26,7.15,6.06,0,3.99-3.45,6.52-7.81,6.9v-.13Zm-6.16-5.7c0,1.23.58,2.88,1.29,2.88.61,0,1.36-1.42,1.76-2.17.61-1.17,2.32-4.64,2.32-5.79,0-.13-.02-.65-.65-1.21-2.61.59-4.72,3.82-4.72,6.29Z"/><path d="m647.86,48.2c.25.06.44.17.44.31,0,.17-.17.31-.35.4-.04,1.02,0,5.49-.02,6.41-.04,4.01-.73,6.14-2.99,8.77l-.12-.06c1.48-3.17,1.73-5.2,1.73-10.89,0-3.51-.1-4.12-.36-5.26l1.67.33Zm2.49,1.11c.17.04.35.12.35.29s-.11.29-.44.54c-.02.79-.04,4.2-.04,5.03,0,.54.12,4.12.12,4.89,0,.29,0,.73-.12.92-.17.29-.58.54-.92.54-.44,0-.65-.31-.65-.71,0-.35.1-1.8.12-2.11.04-1.25.08-3.49.08-5.6,0-1.17,0-3.01-.21-4.18l1.73.4Zm2.21-.98c.27.06.4.13.4.31,0,.13-.13.25-.4.4,0,1.53-.06,8.36-.06,9.74,0,1.82,0,3.22.08,4.22,0,.1.02.31.02.42,0,.5-.5.75-1.04.75-.4,0-.67-.29-.67-.71,0-.02,0-.13.02-.29.21-2.07.21-5.39.21-7.54,0-1.52,0-5.18-.1-6.48-.04-.56-.12-.92-.17-1.25l1.71.42Zm.15,15.92c.65-.58,2.15-1.94,2.93-3.51-.25.27-.58.33-.9.33-.58,0-.67-.36-.67-.65s.06-1.71.08-2.01c.04-1.42.1-3.26.1-4.56,0-1.92-.04-2.59-.19-3.16l1.73.77h.31c.23-.92.29-1.82.31-2.3h-.63c-1.34,0-1.71.08-2.07.13l-.33-.71c.88.08,1.86.12,2.74.12h3.66l.69-1.04c.08-.12.21-.25.29-.25.13,0,.25.1.35.21l1.02,1.04c.1.1.17.19.17.31,0,.19-.17.19-.29.19h-3.72c-.31.46-.96,1.36-1.76,2.3h2.76l.5-.52c.1-.12.21-.23.33-.23s.25.08.35.15l.81.63c.13.12.27.21.27.35,0,.17-.13.29-.56.52,0,.5-.04,2.63-.04,3.53,0,.67.12,3.87.12,4.24,0,.77-.44,1.11-.94,1.11-.73,0-.73-.4-.73-.73h-3.59l1.34.75c.23.13.33.21.33.4,0,.27-.23.33-.67.42-1.52,1.29-2.11,1.73-3.99,2.3l-.08-.12Zm3.05-3.76h-.04l-.04.17.08-.17Zm-.04-8.59v2.36h3.64v-2.36h-3.64Zm0,2.82v2.36h3.64v-2.36h-3.64Zm0,2.82v2.49h3.64v-2.49h-3.64Zm2.74,3.68c.73.06,1.76.31,2.78.75.77.33,1.29.79,1.29,1.5,0,.48-.33.94-.9.94-.54,0-.79-.25-1.13-.84-.29-.5-1.3-1.84-2.05-2.21l.02-.13Z"/><path d="m674.06,49.11c-.5,1.09-.9,1.94-1.44,2.93l.46.19c.21.1.33.17.33.38s-.19.33-.54.52c0,2.11.02,6.39.08,8.34l.08,2.26c0,.27,0,1.17-1.27,1.17-.33,0-.69-.1-.69-.59,0-.02.08-.86.08-.96.21-2.72.27-8.34.23-9.3-1.19,1.75-2.24,2.49-2.65,2.78l-.1-.08c2.3-3.97,3.82-8,4.01-9.55l1.88,1c.15.08.29.17.29.33,0,.31-.19.38-.75.58Zm11.95,14.42h-9.78c-1.19,0-1.59.04-2.09.13l-.31-.71c1.17.12,2.53.12,2.74.12h2.32c1.02-2,2.4-7.96,2.44-10.4l2.05.75c.11.04.29.1.29.29,0,.15-.06.21-.56.61-1.48,4.1-2.3,6.44-3.72,8.75h3.82l.82-1.3c.1-.13.17-.27.31-.27s.33.19.36.21l1.4,1.29s.21.19.21.33c0,.17-.15.21-.31.21Zm-.52-11.66h-9.09c-1.19,0-1.59.04-2.07.13l-.33-.71c1.17.1,2.53.12,2.74.12h1.82c-.04-.73-.02-1.9-.12-2.61-.1-.65-.21-1.11-.31-1.52l2.21.65c.25.08.44.13.44.35,0,.25-.46.59-.59.69v2.44h2.7l.75-1.15c.11-.17.17-.29.31-.29.1,0,.27.13.35.21l1.29,1.19c.13.12.19.17.19.29,0,.19-.15.21-.29.21Zm-8.23,9.9c-.82,0-.92-.96-.94-1.53-.06-2.49-.17-3.85-1.32-6.77h.13c.79.94,3.18,3.84,3.18,6.62,0,.56-.11,1.69-1.05,1.69Z"/><path d="m701.03,62.76c1.4-.54,6.02-2.36,6.02-7.06,0-2.67-1.73-5.14-5.52-5.14-.58,0-.96.06-1.21.1,1.29.56,1.65,1.36,1.65,1.65,0,.27-1.42,3.4-2.47,5.37-1.99,3.76-2.65,3.89-3.18,3.89-.42,0-.63-.29-1.23-1.13-.27-.38-.35-.44-.77-.81-.58-.48-.86-1.5-.86-2.22,0-4.12,3.57-7.48,8.23-7.48,3.93,0,7.15,2.26,7.15,6.06,0,3.99-3.45,6.52-7.81,6.9v-.13Zm-6.16-5.7c0,1.23.58,2.88,1.29,2.88.61,0,1.36-1.42,1.76-2.17.61-1.17,2.32-4.64,2.32-5.79,0-.13-.02-.65-.65-1.21-2.61.59-4.72,3.82-4.72,6.29Z"/><path d="m727.54,54.4c.21-.77.4-1.59.48-2.88l1.75.9c.17.1.23.21.23.31,0,.15-.08.17-.61.29-.35.4-.96,1-1.32,1.38h2.24l.59-.84c.08-.11.19-.27.31-.27.1,0,.23.1.36.21l.94.84s.19.17.19.31c0,.17-.15.21-.29.21h-3.49v2.42h.94l.48-.75c.1-.15.17-.27.31-.27.1,0,.27.13.35.21l.81.77c.1.08.19.17.19.31,0,.17-.15.19-.29.19h-2.78v2.44h.94l.46-.71c.1-.15.17-.27.31-.27.08,0,.23.12.35.21l.88.73c.1.08.19.17.19.29,0,.17-.15.21-.29.21h-2.84v2.51h1.69l.81-.84c.15-.15.23-.25.36-.25.08,0,.25.12.33.19l.96.86c.06.06.19.17.19.29,0,.19-.15.21-.29.21h-7.25c0,.13.04.71.04.82,0,.56-.48.75-1,.75-.56,0-.56-.52-.56-.82s.12-2.92.13-3.47c.02-.35.04-3.34.06-4.72-.15.23-.96,1.29-2.01,2l-.02-.02c0,.56.08,3.01.08,3.51,0,.17,0,.58-.38.84-.19.13-.46.21-.67.21-.38,0-.52-.13-.52-.63,0-.12.04-.67.04-.79h-1.52c.02.52.08,1.75.08,1.99,0,.98-.94.98-1.13.98-.58,0-.58-.44-.58-.61,0-.38.12-3.3.13-4.07.02-.92.02-2.51.02-3.01-.21.35-1.15,1.98-2.46,2.97l-.13-.12c1.57-2.34,2.95-6.48,3.41-9.3h-.42c-1.17,0-1.59.04-2.07.13l-.31-.71c.9.08,1.82.12,2.72.12h1.63l.73-.96c.12-.15.19-.23.29-.23.13,0,.23.08.35.19l.96.94c.1.1.19.19.19.31,0,.19-.15.21-.29.21h-2.11c-.44,2.3-1.21,3.91-1.38,4.32l.56.35h1.13l.52-.52c.1-.1.19-.21.27-.21.06,0,.15.08.23.13l.81.61c.17.13.27.19.27.31,0,.13-.21.35-.48.61,0,.36.04,1.96.04,2.28,1.76-2.67,2.69-4.47,3.57-7.44h-1.86c.1,1.71-.75,2.3-1.32,2.3-.54,0-.86-.46-.86-.81,0-.4.15-.56.94-1.32.5-.48.71-.81.84-1.67l.13-.02c.08.31.11.5.21,1.06h2.05c.46-1.73.5-2.44.52-2.93l1.86.73c.13.06.25.17.25.33s-.13.23-.52.44c-.15.46-.27.81-.52,1.44h2.67l.61-.65c.11-.12.19-.19.27-.19.1,0,.21.12.29.19l1.15,1.09c.08.08.15.21.15.31,0,.33-.13.33-1.17.44-.44.35-1.07.81-1.61,1.19l-.06-.04c.17-.48.38-1.55.44-1.88h-2.92c-.25.61-.98,2.28-1.84,3.74l.13.1h1.76Zm-8.15.84v5.58h1.52v-5.58h-1.52Zm6.33-.38v2.42h1.82v-2.42h-1.82Zm0,2.88v2.44h1.82v-2.44h-1.82Zm0,2.9v2.51h1.82v-2.51h-1.82Z"/><path d="m744.16,52c.15.08.25.21.25.35,0,.21-.23.33-.42.42,0,2.67,0,8.13.02,10.86.02,1.09-1.04,1.09-1.21,1.09-.36,0-.58-.19-.58-.58,0-.19.17-3.62.19-4.3.02-1.23.06-4.95.06-6.19-1.07,1.63-2.26,2.57-2.97,3.09l-.12-.12c2.03-2.63,4.01-8.07,4.01-9.09,0-.12-.04-.31-.08-.5l2.09,1.15c.15.1.25.23.25.36,0,.17-.17.27-.27.31-.08.04-.31.13-.44.19-.21.42-1.17,2.28-1.36,2.67l.58.29Zm2.61,5.16c-1.17,0-1.59.04-2.07.13l-.33-.71c.92.08,1.82.11,2.74.11h2.65c0-1.52,0-2.28-.29-2.99l2,.4c.08.02.29.08.29.29,0,.25-.25.38-.46.52-.04.73-.06,1.44-.06,1.78h2.97l.94-.98c.1-.1.23-.23.29-.23s.17.06.36.19l1.36.98c.1.06.19.19.19.29,0,.19-.19.21-.31.21h-5.72c.75,1.59,3.72,3.99,6.29,4.68v.13c-1.06.44-1.48.92-1.8,1.53-2.15-1.48-3.59-3.7-4.58-6.12.02,1.02.17,5.45.17,6.35,0,.82-.77,1.07-1.11,1.07-.67,0-.71-.5-.71-.75,0-.44.1-2.36.12-2.74.04-1.3.04-2.05.06-2.92-1.42,2.07-3.36,3.68-5.62,4.78l-.08-.15c2.84-2.4,4.6-5.47,4.85-5.87h-2.15Zm6.43-8.71l.38-.48c.1-.13.23-.21.35-.21.15,0,.27.08.42.21l.86.73c.17.13.19.21.19.29,0,.23-.42.5-.63.63,0,.36,0,.59.02,1.67.02.36.1,1.98.1,2.3,0,.82-.88.98-1.06.98-.56,0-.56-.42-.56-.65v-.36h-5.08c0,.27-.02,1.15-1.02,1.15-.4,0-.61-.27-.61-.65,0-.21.13-2.67.13-3.17,0-1.04,0-2.63-.17-3.49l1.82,1.05h4.85Zm-5.01.46v4.18h5.08v-4.18h-5.08Z"/><path d="m767.25,60.94c-.02.19-.04.42-.04.63,0,.23.17,1.21.17,1.4,0,.23,0,.73-.67.73-1.71,0-1.84-4.09-1.84-5.01,0-1.88.31-3.78.52-4.97.23-1.19.44-2.34.44-2.63,0-.25,0-.71-.81-1.52.27-.19.48-.19.61-.19.96,0,2.05.82,2.05,1.73,0,.27-.08.44-.29.94-1.36,3.03-1.4,5.18-1.4,5.95,0,.25.04,1.94.33,1.94.08,0,.15-.04.29-.33.08-.21.79-1.86,1.42-3.59l.21.04s-1,4.85-1,4.87Zm11.7,1.8c-.29,0-.54-.1-1.09-.52-.94-.75-1.3-.98-1.63-1.17-.19.56-.69,2.19-3.16,2.19-1.19,0-3.15-.52-3.15-2.13,0-1.38,1.3-2.07,3.24-2.07.79,0,1.36.1,1.9.17-.1-1.32-.15-2.51-.25-5.18-.65.1-1.13.12-1.55.12-1.84,0-2.93-.71-3.28-1.5,1.51.33,1.94.4,2.57.4.23,0,1.13-.04,2.23-.21-.1-2.49-.12-2.78-.23-3.07-.13-.33-.82-.56-1.27-.69.33-.4.82-.63,1.34-.63.46,0,1.82.42,1.82,1.19,0,.13-.21,1.02-.25,1.17-.13.59-.17,1.17-.19,1.78.13-.02.36-.08.65-.17.13-.04,1.15-.35,1.63-.35.29,0,1.11.19,1.11.71,0,.31-.23.5-.48.58-.61.21-1.52.4-2.93.54.06,2.26.25,4.49.36,5.7,1.13.4,2.03.86,2.47,1.13.44.29.81.59.81,1.15,0,.65-.4.86-.67.86Zm-6.23-2.7c-1.05,0-2.17.25-2.17.92,0,.35.44.98,1.96.98.86,0,2.19-.21,2.36-1.57-.38-.15-.9-.33-2.15-.33Z"/><path d="m799.96,55.68l1.06-1.36c.13-.17.21-.23.29-.23.13,0,.31.15.36.21l1.59,1.4c.12.11.23.19.23.33,0,.17-.15.23-.33.23h-14.04c-1.17,0-1.59.04-2.07.13l-.31-.82c.9.08,1.8.11,2.72.11h10.49Z"/><path d="m815.76,53.23l.71-1.38c.1-.17.15-.33.27-.33s.23.06.35.1l1.48.56c.13.06.27.13.27.29s-.11.17-.23.21l-4.32,1.36c0,.63-.04,4.2-.04,4.56,0,.48.12.48,1.19.48.79,0,1.04-.04,1.27-.48.35-.71.63-1.78.75-2.17h.13c.08.36.31,2.13.48,2.3.19.17.29.27.29.48,0,.38-.38.86-.82,1.06-.77.35-2.05.35-2.21.35-2.69,0-2.69-.84-2.69-1.59,0-.71.08-3.85.1-4.51l-.65.21c-1.04.33-1.44.48-1.94.75l-.52-.58c.29-.08,2.19-.58,2.65-.71l.48-.13c.02-1.59.02-2.63.02-3.07,0-2.23-.04-2.61-.25-3.36l2.13.69c.15.06.31.17.31.33,0,.19-.29.38-.5.52-.17,1.13-.17,3.26-.17,4.47l1.48-.4Zm8.82-3.51l.77-.69c.1-.08.19-.19.29-.19s.17.1.27.17l.98.82c.1.1.29.27.29.4,0,.15-.4.44-.63.63-.04.88-.1,5.26-.17,6.25-.44,6.64-2.22,7.21-4.79,7.5-.13-.73-.29-1.52-1.71-2.59l.08-.13c1.04.31,1.86.46,2.47.46,1.21,0,1.5-.54,1.88-2.07.56-2.32.56-5.56.56-10.11h-3.11c0,5.93-.63,8.06-1.38,9.63-.86,1.76-3.26,4.33-7.73,4.95l-.08-.13c2.49-1.07,5.14-2.72,6.27-5.22,1.38-3.01,1.27-8.82,1.25-9.23h-1.3c-1.34,0-1.71.06-2.09.11l-.31-.69c.88.08,1.86.12,2.74.12h5.47Z"/><path d="m848.28,51.18c-1.13,0-2.51,0-3.45.29-2,.61-4.14,3.13-4.14,5.98,0,.92.4,2.84,3.03,3.64.4.11,2.28.48,2.61.67.46.27.65.59.65,1,0,.73-.59.73-.96.73-.48,0-1.96-.25-3.38-.92-2.84-1.36-2.95-3.76-2.95-4.7,0-2.95,1.76-4.8,3.87-6.58-1.04-.1-4.56,1.3-6.21,2.07-.96.44-1.07.48-1.34.48-.54,0-1.52-.59-1.52-1.82,0-.63.27-.98.42-1.21.4.86.86,1.13,1.53,1.13.61,0,9.49-2.11,9.92-2.24.77-.27,1.15-.38,1.48-.38.9,0,1.8.58,1.8,1.15,0,.71-.59.71-1.36.71Zm-.54,4.83c-.5,0-.65-.29-1.02-1.04-.25-.5-.94-1.38-1.48-1.99,1.13.33,3.13.9,3.13,2.28,0,.33-.15.75-.63.75Zm2.21-.88c-.42,0-.59-.29-1.04-1.11-.44-.81-1.23-1.38-1.67-1.69,1.42.08,3.38.9,3.38,2.09,0,.52-.42.71-.67.71Z"/><path d="m866.75,60.69c-.27,0-.35-.08-1.09-.73-.67-.59-3.72-1.3-5.33-1.3-.48,0-2.57,0-2.57,1.82,0,2.11,2.99,2.11,3.7,2.11.46,0,1.11-.02,1.48-.06.08-.02,1.05-.1,1.07-.1.54,0,1.44.27,1.44.88,0,.88-1.04.88-1.25.88-2.72,0-7.38,0-7.38-3.43,0-2.65,2.8-2.78,4.22-2.78s2.76.08,4.09.44c.04,0,.12.02.19.02s.15-.02.15-.12-.08-.29-.21-.48c-.94-1.3-1.19-1.65-1.8-2.49-1.76.56-3.61.82-4.22.82-1.13,0-2.05-.61-2.53-1.69.52.23,1.34.59,2.51.59.17,0,1.71,0,3.55-.73-.21-.35-.5-.84-1.05-1.96-.21.08-1.73.52-2.47.52-.29,0-1.9-.12-2.26-1.46.75.33,1,.44,1.8.44,1.17,0,1.86-.25,2.49-.46-.04-.1-.08-.19-.36-.94-.21-.58-.59-1.53-1.98-1.53-.13,0-.23.02-.42.04.08-.29.31-1.15,1.75-1.15.69,0,1.36.23,1.59.46.21.21.21.46.21.83,0,.38,0,.96.29,1.84.52-.27.77-.4,1.13-.69.67-.5.75-.56,1.05-.56.5,0,.94.29.94.61,0,.63-1.94,1.42-2.72,1.71.08.23.38.9,1,1.86.86-.4,1.3-.67,1.63-.88.61-.4.69-.44,1.04-.44.54,0,.98.29.98.63,0,.29-.27.5-.54.65-.48.27-1.44.77-2.34,1.11.33.42,1.3,1.57,2.34,2.72.77.84.77,1.19.77,1.46,0,.35-.17,1.52-.86,1.52Z"/><path d="m886.37,51.52c-.56.21-3.43.79-4.39.96-.06.96-.06,1.42-.06,2.51.4-.1,2.34-.75,2.55-.75.38,0,1.25.19,1.25.79,0,.35-.25.44-.38.48-.17.06-2.01.52-3.4.77.08,1.73.1,2.51.58,4.03.79.12,2.15.35,3.41,1.42.23.19.58.5.58,1.06,0,.4-.23.84-.69.84-.33,0-.48-.12-1.04-.54-.84-.63-1.4-.94-2.21-1.3-.12.69-.4,2.47-3.45,2.47-1.99,0-3.4-1.07-3.4-2.17,0-1.92,2.95-2.11,4.1-2.11.48,0,.81.02,1.15.06-.12-.5-.27-1.11-.31-3.55-.33.04-1.23.13-2.3.13-1.5,0-2.36-.23-2.36-.98,0-.58.88-1.19,1.55-1.19-.25.36-.35.5-.35.75,0,.19.13.29.63.29.84,0,1.96-.1,2.8-.23,0-1,0-1.02.06-2.57-1.21.15-2.07.21-2.74.21-2.26,0-2.78-.38-3.41-1.73.9.36,1.5.59,2.82.59.5,0,1.57-.06,3.38-.35,0-.21.04-1.4.04-1.5,0-.73-.1-1.13-1.52-1.55.42-.52.82-.58,1.23-.58.71,0,2.24.44,2.24,1.38,0,.17-.04.25-.33.98-.19.5-.23.71-.29.98.31-.08.82-.21,1.59-.46.27-.1,1.44-.56,1.67-.56.56,0,1.32.38,1.32.88,0,.25-.12.42-.35.52Zm-7.56,9.55c-.96,0-2.44.38-2.44,1.07,0,.27.4.86,1.94.86.65,0,1.46-.13,2.03-.44.52-.29.59-.81.63-1.27-.56-.21-1.55-.23-2.17-.23Z"/><path d="m910.06,54.13c-.19,0-1.07-.08-1.27-.08-1.15,0-2.19.1-2.53.13-.25,2.92-.54,5.56-1.92,5.56-.46,0-.54-.13-.86-.71-.38-.67-.79-.94-1.88-1.65v-.1c.9.21,1.61.4,2.26.4.44,0,.9,0,1.09-3.34-2.57.36-4.01.77-4.64.96,0,.29-.04,1.53-.04,1.8,0,3.97.58,4.68,2.88,4.68,1.84,0,2.84-.17,3.82-.35.25-.04.4-.06.54-.06,1.29,0,1.29.92,1.29,1.07,0,.29-.23.44-.44.56-.5.21-2.26.21-2.9.21-6.1,0-6.54-1.48-6.54-7.46-.36.13-2.3.88-2.84,1.23-.21.13-.42.29-.69.29-.61,0-1.53-1.02-1.53-1.88,0-.29.08-.58.13-.79.48.59.84.84,1.42.84s.98-.1,3.53-.77c0-2.76-.27-2.9-1.4-3.41.21-.19.46-.42,1.11-.42.71,0,1.98.54,1.98,1.23,0,.15-.02.29-.06.48-.1.46-.15.77-.19,1.76,1.59-.44,3.82-.84,4.64-1,.08-3.78-.17-4.01-1.8-4.39.5-.61,1.48-.61,1.57-.61.84,0,1.82.67,1.82,1.36,0,.06-.08.67-.1.81-.08.4-.15,2.24-.19,2.61,1.46-.27,1.5-.27,2.01-.46.23-.08.61-.17,1.09-.17,1.32,0,1.78.58,1.78,1,0,.65-.59.65-1.15.65Z"/><path d="m933.83,56.64c-.98,3.82-2.86,6.44-5.41,6.44-2.23,0-2.42-1.59-2.57-3.03-.19-1.63-.35-2.93-1.63-2.93-2.15,0-3.43,3.13-4.09,4.72-.46,1.11-.61,1.46-1.21,1.46s-.75-.82-.75-1.32c0-.4.1-.71.77-1.65.38-.52,1.27-1.75,3.97-6.92.35-.65,1.42-2.74,1.42-3.16,0-.54-.4-.73-1.27-1.15.17-.15.38-.35.98-.35,1.17,0,2.32,1.05,2.32,1.88,0,.38-.1.48-.92,1.52-.33.4-3.22,4.24-3.76,5.54,1.11-.75,2.03-1.34,3.26-1.34,1.78,0,2.01,1.25,2.34,2.97.23,1.19.4,2.07,1.46,2.07,1.5,0,3.57-2.07,4.89-4.79l.19.06Z"/><path d="m943.23,64.26c-1.55,0-2.82-1.25-2.82-2.84s1.27-2.86,2.82-2.86,2.84,1.25,2.84,2.86-1.27,2.84-2.84,2.84Zm0-4.99c-1.19,0-2.13.94-2.13,2.15s.94,2.13,2.13,2.13,2.15-.94,2.15-2.13-.94-2.15-2.15-2.15Z"/><path d="m963.91,55.19v7.29c0,.73-.15,1.3-.59,1.71-.75.69-1.46.82-1.98.86-.04-.19-.21-.82-.4-1.13-.48-.79-1.63-1.27-2.01-1.44v-.13c1.02.19,2.51.27,2.76.27.35,0,.63-.15.63-.56v-6.87h-5.6c-1.19,0-1.59.04-2.09.13l-.31-.71c1.17.1,2.53.11,2.74.11h10.97l1.11-.92c.17-.15.19-.17.29-.17s.29.13.35.19l1.38,1.21c.13.12.23.29.23.4,0,.38-.73.42-1.61.46-1.02.75-3.26,2.11-4.45,2.57l-.06-.08c.42-.44,2.17-2.57,2.53-3.2h-3.89Zm-4.18-4.56c1.4-.02,2.72.48,3.87,1.27.81-.71.94-.84,2.36-2.42h-7.44c-1.17,0-1.59.04-2.07.13l-.31-.71c1.15.1,2.51.12,2.72.12h7.19l.86-.67c.13-.1.33-.25.4-.25s.23.12.34.19l1.48,1.11c.1.08.17.21.17.36,0,.19-.1.35-.29.4-.21.06-1.17.08-1.36.1-.9.59-2.84,1.57-3.7,1.92.33.29.69.63.69,1.3,0,.44-.23,1.19-1.02,1.19-.38,0-.46-.12-.92-.79-1.32-1.9-2.49-2.74-3.05-3.15l.06-.12Z"/><path d="m985.74,63.36c3.38-.77,6.77-2.95,6.77-6.44,0-2.65-2.24-3.99-4.58-4.03-.98,2.09-2.05,4.41-3.24,5.91.92,1.02,1.23,1.36,1.23,1.9,0,.31-.13.73-.63.73-.71,0-1.36-1-1.59-1.36-.29.33-1.8,2.07-2.92,2.07-.38,0-.61-.13-.77-.29-.15-.17-.56-1.27-.67-1.5-.29-.52-.38-.69-.38-1.02,0-.27.23-1.4.69-2.34.63-1.29,1.46-2,1.88-2.34-.77-2.84-.86-3.15-1.55-4.24.63,0,1.69.54,2.19,2.03.13.42.29.98.4,1.46,1.48-.94,3.11-1.4,4.07-1.52.29-.82.58-1.84.58-2.28,0-.5-.12-.59-1.19-1.5.21-.1.38-.17.79-.17,1.25,0,2.4.75,2.4,1.59,0,.35-.25.83-.38,1.07-.42.79-.42.81-.59,1.15,2.86,0,6.06,1.34,6.06,4.97,0,3.85-3.55,6.41-8.54,6.25v-.12Zm-3.95-7.71c-.52.59-1.67,2.05-1.67,3.78,0,.33,0,1.3.75,1.3s2.03-1.59,2.19-1.8c-.65-1.29-1.04-2.4-1.27-3.28Zm.98-.96c.52,1.94.94,2.69,1.15,3.03,1.44-2.07,2.36-4.43,2.47-4.72-2.19.44-3.3,1.42-3.62,1.69Z"/><path d="m1014.07,62.09c-.96.56-4.09.58-5.12.58-1.9,0-3.84-.08-5.26-.9-.82-.48-1.92-1.46-1.92-2.9,0-.56.29-1.96,1.23-2.46-.23.81-.23,1.4-.23,1.5,0,1.3.94,3.18,4.7,3.18,1.52,0,3.43-.13,4.89-.59.12-.04.23-.06.4-.06.61,0,1.71.38,1.71,1,0,.35-.25.56-.4.65Zm-2.51-9.71c-.21,0-1.09-.04-1.27-.04-1.42,0-2.28.35-4.51,1.27l-.06-.12c.31-.31,2.11-1.67,2.11-1.75s-1.48-.31-1.75-.36c-.17-.04-2.53-.56-2.47-2.53.98,1.06,2.11,1.42,4.76,1.42.31,0,1.71-.02,1.99,0,.65.04,2.13.46,2.13,1.36,0,.67-.65.75-.94.75Zm3.05-.94c-.35,0-.46-.15-1.02-.88-.86-1.11-1.07-1.23-1.9-1.71,1.25.04,3.59.52,3.59,1.8,0,.44-.31.79-.67.79Zm1.94-.94c-.31,0-.38-.1-1.04-.98-.44-.61-1.04-1.11-1.75-1.4.23-.02.38-.04.58-.04,1.38,0,2.88.73,2.88,1.73,0,.36-.29.69-.67.69Z"/><path d="m1027.27,62.21c.58.06,2.38.27,3.24.27.33,0,.54-.02.54-.73,0-6.96,0-7.31-.08-8.07-.1-1.11-.33-1.65-.63-2.32l2.24.63c.27-.23,1.67-1.4,1.76-1.5.48-.48,1.3-1.3,1.42-1.38h-10.2c-1.17,0-1.59.06-2.07.13l-.33-.71c1.17.11,2.53.11,2.74.11h10.05l.84-.58c.21-.15.29-.19.42-.19.21,0,.38.13.48.23l1.3,1.11c.1.08.17.23.17.35,0,.42-.59.4-1.04.38-.48.19-2.9,1.25-2.99,1.29-.33.12-1.8.73-2.09.84.06.1.1.13.1.25,0,.31-.35.44-.54.52,0,2.42.17,6.29.17,8.71,0,1.25,0,3.13-2.69,3.41,0-.86-1.59-2.3-2.84-2.63v-.13Z"/><path d="m1052.17,54.23c-1.52,4.83-3.17,7.29-6.39,9.05l-.06-.08c1.38-1.34,2.4-2.99,3.2-4.74,1.07-2.38,1.63-4.72,1.84-5.77h-2.05c-1.32,0-1.71.06-2.07.13l-.31-.71c.86.08,1.84.12,2.72.12h1.63l.81-.65c.06-.06.17-.13.25-.13.04,0,.06,0,.21.15l1.02.9s.15.13.15.29c0,.31-.38.4-.69.48-.1.36-.15.58-.27.92.46.04.94.08,1.96.1,0-2.38,0-2.65-.44-3.68l1.06.29c.25-.23,1.36-1.21,2.24-2.24h-5.08c-1.32,0-1.69.08-2.07.13l-.31-.71c.88.08,1.86.11,2.74.11h4.7l.65-.52c.17-.13.17-.15.25-.15s.27.11.35.17l1.32.82c.21.13.23.33.23.4,0,.44-.63.48-.9.5-.94.48-2.59,1.25-3.62,1.61l.63.17c.17.04.33.15.33.33,0,.15-.13.25-.56.54-.08,1.19-.06,2.11-.06,2.23h.06l.33-.48c.08-.12.17-.25.29-.25.1,0,.17.06.35.21l.61.5c.06.04.19.15.19.29,0,.19-.19.21-.29.21h-1.53c.02.31.08,1.9.08,2.26h.21l.56-.86c.06-.1.13-.23.27-.23s.29.15.35.19l.94.86c.08.06.17.17.17.29,0,.19-.19.21-.29.21h-2.19c.02.65.06,1.71.08,2.28h.75l.71-.79c.19-.21.21-.25.31-.25.08,0,.15.04.34.21l.96.81c.08.06.19.15.19.29,0,.19-.19.19-.29.19h-2.97c.02.38.06,2.42.06,2.61,0,1.29-.44,1.75-2.47,2.26-.12-1.4-1.4-2.09-1.84-2.3v-.15c.4.04,1.61.15,2.03.15s.61-.12.65-.73c.04-.52.02-.94,0-1.84h-1.53c-1.32,0-1.71.08-2.07.13l-.31-.71c.86.08,1.84.11,2.72.11h1.19c0-.59-.02-1.78-.02-2.28-1.4,0-1.76.04-2.3.13l-.31-.71c.73.06,1.84.12,2.59.12l-.02-2.26c-.73,0-1.09.02-1.67.12l-.29-.65Zm12.31,7.02c-.84.27-1.65.77-2.15,1.46-3.36-3.15-5.22-7.98-5.1-12.1h.12c0,1.67.81,3.38,1.21,4.22.29-.35,1.53-1.92,1.76-2.26.63-.92.71-1.29.79-1.57l1.84,1.57c.12.1.19.19.19.29,0,.25-.33.27-.81.31-.21.12-.38.21-1.92,1.02-.9.48-1.4.69-1.76.82,1.34,2.57,3.16,4.95,5.83,6.08v.17Z"/><path d="m1078.1,64.81c-.42,0-.56-.23-1.8-2.17-.75-1.15-1.25-1.65-4.74-5.1-.29-.27-.79-.86-.79-1.52,0-.31.06-.67.77-1.4,3.07-3.22,3.38-3.53,4.49-5.16.15-.21.25-.4.25-.58,0-.13-.1-.67-1.09-1.42.13-.04.21-.06.36-.06,1.76,0,2.67,1.5,2.67,2.05,0,.5-.34.77-.73,1.06-.65.48-3.72,3.18-5.26,4.81-.23.25-.31.48-.31.65,0,.5.19.65,1.42,1.69,3.43,2.93,4.74,4.03,5.26,4.89.21.36.29.69.29,1,0,.61-.29,1.25-.79,1.25Z"/><path d="m1095.63,51.85c-1.04.63-2.63,1.07-3.47,1.29-1.4,3.84-2.38,6.56-3.68,9.42-.19.4-.4.84-.94.84-.21,0-.84-.21-.84-.98,0-.36.1-.52.94-1.92.86-1.42,1.73-2.86,3.16-7.06-.36.08-1.5.33-2.28.33-1.19,0-1.9-.82-2.05-1.53.69.23,1.11.36,1.76.36,1.09,0,2.34-.33,2.99-.5.08-.25.52-1.88.52-2.44,0-.67-.23-.79-1.34-1.32.33-.23.73-.36,1.13-.36.9,0,2.13.86,2.13,1.57,0,.17-.31.77-.52,1.17-.17.36-.31.65-.4.88.88-.35.96-.4,1.53-.81.21-.15.36-.23.61-.23.4,0,1.04.33,1.04.81,0,.21-.1.36-.29.48Zm5.52,11.37c-.52.23-2.47.29-3.07.29-2.46,0-4.83-.9-4.83-2.82,0-.12,0-1.02.56-1.76.17,2.21.88,2.92,3.93,2.92.61,0,1.07-.02,1.99-.13.5-.08.56-.08.67-.08.52,0,1.19.42,1.19.98,0,.33-.29.56-.44.61Zm-.06-7.75c-.25,0-1.44-.17-1.5-.17-.21,0-1.65.33-2.71.86l-.06-.08c.33-.31.44-.4,1.4-1.13.36-.27.4-.29.4-.44,0-.56-1.44-.58-3.28-.61.79-.75,2.55-.92,3.13-.92,1.82,0,3.26,1.05,3.26,1.86,0,.63-.5.63-.65.63Zm-.86-3.61c-.33,0-.38-.06-1.02-.86-.4-.52-1.15-1.15-1.92-1.71.86.1,3.59.42,3.59,1.82,0,.38-.25.75-.65.75Zm1.75-1.53c-.27,0-.29-.02-1.05-.84-.15-.15-1.09-1.07-2.09-1.53.9-.08,3.74.13,3.74,1.61,0,.35-.17.77-.59.77Z"/><path d="m1119.94,59.42c-.17,0-.25-.06-.96-.48-1.5-.88-4.05-1.27-5.04-1.27-1.9,0-3.3.94-3.3,2.22,0,1.92,2.21,2.36,5.18,2.36,1.42,0,1.57,0,1.94.17.19.1.61.36.61.88,0,.69-.81.73-1.13.73-1.32,0-7.25-.15-7.25-3.85,0-1.53,1.06-2.32,1.67-2.67,1.07-.63,2.88-.63,3.26-.63,1.59,0,2.3.15,3.61.38.08.02.13.02.19.02s.1,0,.1-.1c0-.31-2.22-3.03-3.34-4.1-1.27.46-2.67.92-4.22.92-1.17,0-2.46-.56-2.61-2.05.75.5,1.36.79,2.42.79,1.42,0,2.46-.36,3.28-.65-.27-.21-.96-.75-1.98-1.38-.71-.44-.71-.88-.71-1.07,0-.88.71-1.52,1.25-1.52.23,0,.38.08,1.76.86-.13.04-.81.06-.98.1-.13.02-.33.13-.33.36,0,.46,1.44,1.76,2.01,2.26.59-.21,2.47-1,2.47-1.46,0-.17-.34-.35-.59-.52v-.06c.21.04.56.1.79.1.15,0,.86-.21,1.02-.21.35,0,.86.19.86.75,0,.96-2.38,1.96-3.47,2.4.71.69,1.84,1.78,2.53,2.49.98,1,1.94,2,1.94,2.7,0,.81-.58,1.52-.98,1.52Z"/><path d="m1134.61,57.62c-.17.42-1.09,2.38-1.09,2.7,0,.17.19,1,.19,1.17,0,.58-.36.84-.73.84-.52,0-3.49-.96-3.8-6.71-.02-.42-.08-2.26-.13-2.63-.13-1.02-.36-1.48-.79-2.32.96.06,2.69.69,2.69,2.3,0,.11-.02.23-.06.44-.04.27-.38,2.23-.38,3.11,0,1.99,1.13,3.22,1.53,3.22.17,0,.34-.25.46-.4,1.04-1.5,2.09-2.99,3.07-4.56l.13.06c-.1.23-.19.5-1.09,2.78Zm8.09,1.57c-.33,0-.61-.31-1.15-.94-.11-.12-.65-.56-1.96-.82v-.1c.12-.02,1.61-.1,1.67-.12.17-.04.35-.21.35-.5,0-.33-.31-1.44-1.04-2.51-.77-1.11-1.73-1.84-2.19-2.17,1.96-.21,5.16,2.47,5.16,5.58,0,.88-.42,1.57-.84,1.57Z"/><path d="m1153.64,64.26c-1.55,0-2.82-1.25-2.82-2.84s1.27-2.86,2.82-2.86,2.84,1.25,2.84,2.86-1.27,2.84-2.84,2.84Zm0-4.99c-1.19,0-2.13.94-2.13,2.15s.94,2.13,2.13,2.13,2.15-.94,2.15-2.13-.94-2.15-2.15-2.15Z"/><path d="m1181.19,48.45l.42-.54c.1-.12.19-.19.29-.19s.23.06.38.17l.9.65c.11.08.19.19.19.35,0,.27-.17.4-.44.65-.04,1.92.02,5.22.1,7.63.02.33.12,1.76.12,2.07,0,.67-.79.82-1.11.82-.56,0-.59-.25-.61-.71h-2.42c0,.06-.02.33-.02.36l1.42.92c.08.06.31.19.31.44,0,.21-.08.23-.73.35-.96,1.29-2.15,2.26-3.95,3.05l-.06-.06c1.38-1.71,2.32-3.24,2.69-4.32-.08.06-.29.19-.67.19-.4,0-.59-.17-.59-.58,0-.04,0-.19.02-.48.04-.54.04-.75.04-2.51,0-1.07-.02-6.77-.1-7.75-.06-.58-.12-1-.17-1.29l1.71.75h2.3Zm-2.19.46v2.99h2.42v-2.99h-2.42Zm0,3.45v2.99h2.42v-2.99h-2.42Zm0,3.45v3.09h2.42v-3.09h-2.42Zm3.93,8.67c2.86-1.71,4.28-3.78,4.78-4.55-.94-1.99-1.4-4.78-1.55-6.52h-.48c0,5.54-.9,8.19-3.7,10.7l-.1-.11c.17-.27.4-.63.79-1.38-.1.1-.23.19-.5.19-.63,0-.79-.56-.94-1.13-.15-.59-.46-1.3-.84-1.75l.08-.15c.25.02,2.57.69,2.49,2.24.84-1.96,1.25-3.89,1.25-8.25,0-1.76-.06-4.26-.44-5.91l1.98.88h4.47l.88-1.02q.21-.23.29-.23c.12,0,.19.06.36.19l1.23,1.02c.06.06.19.15.19.29,0,.19-.19.21-.29.21h-7.19v3.74h4.12l.69-.61c.11-.1.21-.19.31-.19s.15.06.27.15l1.05.82c.1.08.19.17.19.33,0,.23-.08.29-.84.84-.21,1.11-.71,3.49-2.19,5.75,1.9,2.01,4.2,2.4,5.04,2.51v.1c-.67.27-1.46.56-2.17,1.69-1.42-.83-2.74-1.84-3.7-3.17-1.42,1.73-3.3,2.84-5.45,3.45l-.08-.15Zm3.61-11.07c.13.71.61,3.32,1.82,5.37.94-1.88,1.34-4.35,1.51-5.37h-3.34Z"/><path d="m1207.64,56.36c.34.1.46.19.46.35,0,.27-.21.36-.61.56.12,3.89-2.07,7.29-7.67,7.54v-.1c3.47-1.36,5.93-3.05,5.93-7.1,0-.86-.13-1.42-.23-1.86l2.13.61Zm6.39-1.55l.79-.77c.13-.11.19-.17.29-.17.12,0,.29.13.35.17l1.52,1.21c.1.08.21.23.21.38,0,.48-1.17.46-1.63.46-.04.02-1.5,1.04-2.03,1.3l-.1-.08c.11-.23.58-1.53.77-2.05h-10.99c.12,1.4-.61,2.8-1.76,2.8-.75,0-.98-.67-.98-1.04,0-.46.06-.52.9-1.32,1.06-.98,1.21-1.69,1.32-2.21l.11-.02c.17.63.25.96.33,1.32h10.91Zm-.23-5.04l.79-.98c.15-.19.19-.23.29-.23s.12,0,.36.19l1.27.98c.08.04.19.15.19.29,0,.17-.15.21-.29.21h-7.04v2.07h3.32l.71-.92c.15-.21.21-.23.29-.23s.1-.02.36.19l1.21.92s.19.15.19.29c0,.17-.15.21-.29.21h-10.86c-1.17,0-1.59.04-2.07.12l-.31-.69c1.17.1,2.51.12,2.72.12h3.13v-2.07h-4.6c-1.19,0-1.59.04-2.07.12l-.33-.69c1.17.1,2.53.12,2.74.12h4.26c-.04-1.67-.12-2.03-.33-2.67l2.34.67c.13.04.29.1.29.29,0,.35-.48.54-.67.63-.02.25-.02.42-.04,1.07h4.43Zm-2.17,6.46c.17.04.44.13.44.36,0,.19-.19.33-.63.58-.08.9-.15,2.07-.15,3.99,0,1.21,0,1.4.11,1.57.12.21.44.23.81.23,2.46,0,2.69,0,3.05-1.21.17-.56.23-.79.54-2.13h.15c.31,2.46.33,2.69.67,2.93.54.36.59.42.59.67s-.29.98-1.3,1.21c-.52.11-3.47.11-4.24.11-2.07,0-2.07-1.53-2.07-2.26,0-.81.02-4.39.02-5.22,0-.92-.1-1.13-.21-1.42l2.22.58Z"/><path d="m1231.96,49.72c0,.65.06,3.51.06,4.09,0,.77-1,.81-1.09.81-.58,0-.58-.48-.58-.65,0-.13,0-.23.02-.33h-3.38c0,2,0,7.77.04,9.25,0,.23.08,1.19.08,1.38,0,.73-1.07.73-1.09.73-.44,0-.54-.15-.54-.52,0-.19.06-1.34.06-1.59,0-2.19,0-11.62-.12-13.39-.04-.77-.08-1.11-.17-1.63l1.88.92h3.11l.61-.59c.1-.1.21-.19.31-.19.08,0,.15.04.31.15l.92.63s.17.13.17.27c0,.17-.06.23-.59.67Zm-1.55-.48h-3.4v1.63h3.4v-1.63Zm0,2.09h-3.4v1.84h3.4v-1.84Zm7.35,7.71h-2.8c0,.65.15,3.55.15,4.2,0,.75-.86.84-1.09.84-.34,0-.52-.17-.52-.58,0-.19.06-1.05.06-1.25.04-1.57.02-2.59,0-3.22h-1.59c-.04.48-.19,2.05-1.52,3.3-1.07,1.04-2.24,1.4-2.8,1.57v-.1c.71-.4,2.49-1.71,2.86-4.78h-.33c-1.17,0-1.59.04-2.07.11l-.33-.69c1.23.1,2.67.12,2.76.12.04-.73.04-1.52.02-2.26-1,0-1.46.08-1.76.13l-.31-.71c1.15.1,2.51.12,2.72.12h3.74l.5-.69c.15-.21.23-.23.29-.23.1,0,.29.15.36.21l.98.67c.06.04.17.15.17.29,0,.19-.15.21-.29.21h-2.01v2.26h.58l.65-.73c.17-.21.19-.23.29-.23.08,0,.1.02.35.19l1.04.73c.06.04.19.15.19.29,0,.17-.15.21-.29.21Zm-4.22-2.72h-1.44c-.04,1.27-.06,1.86-.1,2.26h1.55l-.02-2.26Zm6.48-6.48v3.91c0,2.46.06,6.37.06,8.8,0,.73-.02,1.98-2.15,2.38-.42-.9-.73-1.38-1.9-2.03v-.15c.31,0,1.63.06,1.9.06.5,0,.59-.13.59-.69,0-3.51,0-4.01-.02-8.48h-3.43c.02.21-.04.4-.17.56-.15.17-.59.31-.9.31-.35,0-.5-.17-.5-.48,0-.21.06-1.17.06-1.36,0-.5-.02-2.76-.02-3.22s-.08-.98-.15-1.57l1.82.92h3.11l.48-.5c.1-.1.23-.23.36-.23s.21.08.33.15l.94.67c.1.06.19.17.19.31s-.06.19-.59.65Zm-1.52-.59h-3.45v1.63h3.45v-1.63Zm0,2.09h-3.45v1.84h3.45v-1.84Z"/><path d="m1253.87,51.43c.08-.12.17-.25.36-.25.12,0,.21.08.33.15l1.02.71c.1.06.21.17.21.35s-.13.29-.69.61c-.1,2.03-.81,5.14-1.4,6.69,1.86.98,2.07,2.09,2.07,2.49,0,.56-.44.84-.86.84-.52,0-.58-.1-1.59-1.71-.13-.19-.19-.27-.27-.36-1.11,1.82-2.86,3.16-4.87,3.87l-.08-.13c2.51-1.71,3.7-4.3,3.93-4.8-.73-.63-1.32-.86-1.63-.98-.23,1.05-.35,1.59-1.21,1.59-.06,0-.81,0-.81-.63,0-.06,0-.12.06-.31.63-1.98.75-2.49,1.82-7.08-.94,0-1.4.08-1.78.13l-.31-.71c.82.08,1.36.1,2.21.12.73-3.24.73-3.38.67-4.62l2.11.94c.15.06.23.1.23.23,0,.12-.1.17-.21.25-.08.06-.44.25-.52.29-.08.33-.12.48-.17.67-.08.35-.44,1.94-.52,2.24h1.44l.46-.61Zm-2.01,1.07c-.46,2.05-1.02,4.49-1.4,6.12.27.06.86.15,1.9.5.5-1.32.96-3.59,1.21-6.62h-1.71Zm9.24-1.94c2.13.73,4.35,2.24,4.35,4.01,0,.69-.56,1.02-.94,1.02-.52,0-.73-.5-.92-.92-.17-.42-.5-1.11-.56-1.27-1.29.56-4.6,1.53-5.96,1.92-.23.44-.33.59-.61.59-.1,0-.15-.04-.25-.27l-.84-2.07c.52.11.81.13,1.51.11.83-1.78,2.05-4.51,2.05-5.79,0-.1,0-.21-.04-.48l2.21,1.07c.1.06.19.15.19.27,0,.23-.08.25-.71.52-.96,1.61-2.49,3.51-3.3,4.39,1.88-.12,3.74-.25,5.56-.61-.17-.33-.92-1.67-1.82-2.34l.08-.15Zm1.32,6.46l.59-.63c.17-.19.27-.23.35-.23.12,0,.15.02.44.25l.77.61c.13.1.25.21.25.4,0,.17-.04.21-.54.61-.06,1.4,0,3.28.04,4.22.02.21.13,1.19.13,1.38,0,.88-1.11.88-1.21.88-.58,0-.58-.33-.58-1.04v-.23h-4.62s.04.46.04.5c0,.82-.94.82-1.04.82-.42,0-.61-.23-.61-.67,0-.38.04-.98.04-1.36,0-1.46-.02-5.01-.12-6.33l1.76.81h4.3Zm-4.37.46v5.29h4.62v-5.29h-4.62Z"/><path d="m1281.41,55.19v7.29c0,.73-.15,1.3-.59,1.71-.75.69-1.46.82-1.98.86-.04-.19-.21-.82-.4-1.13-.48-.79-1.63-1.27-2.01-1.44v-.13c1.02.19,2.51.27,2.76.27.35,0,.63-.15.63-.56v-6.87h-5.6c-1.19,0-1.59.04-2.09.13l-.31-.71c1.17.1,2.53.11,2.74.11h10.97l1.11-.92c.17-.15.19-.17.29-.17s.29.13.34.19l1.38,1.21c.13.12.23.29.23.4,0,.38-.73.42-1.61.46-1.02.75-3.26,2.11-4.45,2.57l-.06-.08c.42-.44,2.17-2.57,2.53-3.2h-3.89Zm-4.18-4.56c1.4-.02,2.72.48,3.87,1.27.81-.71.94-.84,2.36-2.42h-7.44c-1.17,0-1.59.04-2.07.13l-.31-.71c1.15.1,2.51.12,2.72.12h7.19l.86-.67c.13-.1.33-.25.4-.25s.23.12.35.19l1.48,1.11c.1.08.17.21.17.36,0,.19-.1.35-.29.4-.21.06-1.17.08-1.36.1-.9.59-2.84,1.57-3.7,1.92.33.29.69.63.69,1.3,0,.44-.23,1.19-1.02,1.19-.38,0-.46-.12-.92-.79-1.32-1.9-2.49-2.74-3.05-3.15l.06-.12Z"/><path d="m1312.39,64.6c-.59.02-1.13.06-1.98.06-4.45,0-5.91-.69-6.77-1.23-1.61-1-2.4-2.32-2.76-3.49-1.36,2.97-3.26,4.33-4.97,4.85l-.08-.08c2.57-1.57,4.22-6.44,4.22-8.4,0-.27-.02-.38-.08-.54l2.26.86c.12.04.19.17.19.27,0,.15-.08.21-.73.58-.12.5-.27,1.11-.58,1.88.81,1.57,1.78,2.34,2.63,2.82v-7.63h-3.66c-1.34,0-1.71.06-2.07.13l-.33-.71c.92.08,1.82.12,2.74.12h8.11l.77-1.09c.13-.17.17-.23.29-.23.08,0,.12,0,.36.19l1.5,1.09c.1.06.21.17.21.29,0,.19-.19.21-.31.21h-5.96v3.59h2.42l.9-1.11c.17-.23.19-.23.31-.23.08,0,.15.04.35.19l1.32,1.11c.08.06.19.17.19.29,0,.19-.19.21-.29.21h-5.2v4.16c.52.1,1.07.12,1.53.12.4,0,2.65-.06,7-.69v.11c-.52.38-1.32,1-1.55,2.3Zm-.46-13.16c-.23,0-.56-.06-.67-.08-.31.1-.77.25-1.27.54-1.02.61-1.13.69-1.25.73l-.06-.08c.42-.79.67-1.25,1.09-2.15h-10.07c.04,1.42-.44,2.92-1.9,2.92-.65,0-.94-.44-.94-.88,0-.56.38-.84.63-1.04,1.4-1.06,1.69-1.86,1.82-2.61h.13c.08.33.15.63.23,1.15h4.07c0-1.92-.1-2.15-.48-3.01l2.53.59c.13.04.29.15.29.27s-.1.17-.21.23c-.13.08-.21.12-.42.27-.04.25-.06.29-.06.67v.98h4.22l.82-.75c.08-.08.13-.13.23-.13s.21.1.27.15l1.46,1.5c.12.11.23.21.23.38,0,.35-.61.35-.71.35Z"/><path d="m1320.32,64.76l-.38-.38,16.96-16.96.38.38-16.96,16.96Z"/><path d="m1361.9,54.05c-1.09.52-1.27.59-2.09,1.75-2.95-1.44-5.26-4.22-6.67-7.25-.1.04-.15.06-.4.1-2.55,3.97-5.06,6.12-9.09,8.06l-.12-.13c3.13-2.53,5.18-5.08,6.14-6.39,1.42-1.94,1.59-2.61,1.71-3.18l1.94.82c.13.06.23.19.23.35,0,.1-.04.13-.08.19,1.8,2.92,5.29,5.24,8.44,5.49v.21Zm-9.23,3.09c-.06.75.02,4.39.02,5.22,0,.4,0,1.88-.12,2.07-.19.27-.65.46-1.04.46-.19,0-.69-.02-.69-.65,0-.17.1-1.04.1-1.23.04-.82.15-3.51.15-5.87h-2.24c-1.32,0-1.69.08-2.07.13l-.31-.71c.92.08,1.82.12,2.74.12h6.58l.58-.63c.23-.25.27-.31.4-.31.12,0,.19.04.38.19l.73.58c.15.11.25.19.25.33,0,.27-.17.38-.58.59v1.11c0,.33.08,1.59.08,1.94,0,1.61-1.17,2.3-2.34,2.55-.19-1.13-1.15-1.86-1.57-2.09v-.17c.25.02,1.52.1,1.8.1.44,0,.52-.04.5-.86,0-.4.02-2.4.02-2.86h-3.38Zm.71-3.2l.69-.86c.13-.17.21-.25.31-.25.08,0,.15.04.34.21l1.06.86c.1.08.19.17.19.31,0,.17-.15.19-.29.19h-4.55c-1.17,0-1.59.06-2.07.13l-.29-.71c1.17.12,2.53.12,2.74.12h1.86Z"/><path d="m1374.18,53.13l.92-.92c.21-.21.25-.23.33-.23.1,0,.27.13.34.19l.98.92c.1.1.17.17.17.29,0,.19-.15.21-.29.21h-3.45v1.59c.61.06,3.22.79,3.22,2.44,0,.61-.48.96-.9.96-.54,0-.67-.27-1.13-1.19-.71-1.4-.92-1.67-1.19-1.96.02,1.36.08,7.35.08,8.57,0,.77-.79.9-1.13.9-.36,0-.59-.1-.59-.58,0-.06.02-.29.04-.59.19-2.19.17-4.7.19-7.04-.96,1.57-2.63,3.7-4.33,4.62l-.08-.13c1.75-2.03,3.74-5.56,4.24-7.6h-1.57c-1.19,0-1.59.04-2.09.13l-.31-.71c1.17.1,2.53.12,2.74.12h1.4l-.02-3.11c-1.88.38-2.7.46-3.62.5l-.04-.15c2.86-.96,4.91-1.78,6.18-2.74.27-.21.38-.35.5-.52l1.4,1.32s.13.15.13.25c0,.17-.17.21-.35.21-.1,0-.15-.02-.27-.04-.48.19-1.15.48-2.51.84.02,1.67.02,2.46.02,3.43h1Zm7.9-2.88l.63-.67c.13-.13.19-.19.27-.19.06,0,.19.1.25.15l1.13.86c.06.04.13.12.13.21,0,.29-.48.56-.63.63-.06,2.76.1,7.5.11,8.52.02.44.13,2.44.13,2.72,0,.94-1.15,1-1.25,1-.63,0-.67-.42-.59-1.21h-3.16c.04.35.04.42.04.58,0,.44-.13.63-.27.75-.25.21-.61.36-.9.36-.61,0-.61-.44-.61-.63,0-.08.02-.42.02-.52.1-1.55.15-6.85.15-7.71,0-3.47-.1-4.7-.29-5.93l1.99,1.07h2.84Zm-2.99.46v11.1h3.2v-11.1h-3.2Z"/><path d="m1393,51.06l-.17,4.64c.46-.38,1.65-1.36,3.11-1.36,1.69,0,4.07,1.4,4.07,4.26,0,3.13-2.65,5.14-4.95,5.14-2.03,0-3.57-1.55-3.57-2.92,0-.88.69-1.42,1.3-1.42.48,0,1.07.38,1.07,1.21,0,.25-.04.42-.13.65-.08.17-.1.23-.1.59,0,.42.08,1.21,1.32,1.21,1.76,0,2.92-1.84,2.92-4.28,0-2.23-1-3.57-2.49-3.57-1.4,0-2.44,1.13-2.93,1.71l-.27-.25.27-7.31h6.77l-.4,1.69h-5.81Z"/><path d="m1418.78,54.26l.77-1.09c.17-.25.25-.25.29-.25.12,0,.27.13.36.21l1.25,1.07c.15.13.19.23.19.31,0,.19-.17.21-.29.21h-5.29c-.02.4-.02.65-.02.88,0,.54.04,2.88.04,3.34h3.93l1.04-1.25c.19-.25.23-.25.29-.25.13,0,.29.15.36.21l1.44,1.27c.12.1.19.15.19.29,0,.17-.15.19-.29.19h-6.96c.02,1.67.02,2.03.06,2.97,0,.25.1,1.38.1,1.61,0,.25,0,.61-.46.86-.29.15-.58.19-.75.19-.59,0-.71-.38-.71-.69,0-.79.17-4.24.17-4.95h-5.72c-1.17,0-1.59.06-2.07.13l-.31-.71c1.17.11,2.51.11,2.72.11h.98c.02-.48,0-3.18-.02-3.85,0-.61-.04-.94-.21-1.75l1.99.92h2.65v-3.74h-3.34c-.65,1.02-2.69,3.68-4.74,4.7l-.08-.12c1.94-2.32,3.07-4.39,3.68-5.75.5-1.13.59-1.75.69-2.44l2.03,1.04c.19.1.31.17.31.29,0,.21-.38.35-.96.56-.15.36-.31.67-.65,1.27h8.06l.79-1.13c.1-.13.17-.23.29-.23.1,0,.13,0,.36.19l1.46,1.13c.12.1.19.19.19.29,0,.19-.17.21-.29.21h-6.21c-.02,1.21-.04,2.84-.04,3.74h2.72Zm-4.3,4.68c0-.59.02-3.55.02-4.22h-2.84v4.22h2.82Z"/><path d="m1433.17,58.29c-1.71,0-3.34-1.61-3.34-4.33,0-3.18,2.24-4.93,4.09-4.93,1.94,0,4.47,1.88,4.47,6.6,0,3.78-1.84,8.11-5.29,8.11-1.5,0-2.7-.83-2.7-1.96,0-.71.46-1.19,1.11-1.19.61,0,1.21.5,1.21,1.23,0,.1-.08.56-.08.65,0,.52.5.63.82.63.73,0,2.47-.81,2.82-6.48-1.07,1.19-2.24,1.67-3.11,1.67Zm.73-8.61c-1.53,0-2.01,2.38-2.01,4.05,0,1.98.67,3.61,1.94,3.61.17,0,1.36,0,2.47-1.48-.06-2.01-.17-6.18-2.4-6.18Z"/><path d="m1455.26,48.4l.69-.69c.1-.1.17-.19.31-.19.1,0,.23.1.31.17l1.11.94c.1.08.15.19.15.33,0,.23-.19.38-.75.73-.04,1.69.08,6.92.12,8.86.02.44.08,2.99.08,3.34,0,1.17,0,2.34-2.7,2.74-.21-1.19-.96-1.59-1.96-2.09l.02-.13c.73.1,1.55.12,1.82.12.84,0,.96-.06.98-.59.02-.48.06-2.65.08-4.74h-5.98c-.23,2.4-1.07,5.83-5.08,7.71l-.1-.08c3.15-3.43,3.68-6.04,3.68-11.43,0-3.41-.23-5.06-.36-6.06l2.21,1.07h5.39Zm-5.62,4.62c0,2.15-.04,2.99-.08,3.7h5.95v-3.7h-5.87Zm0-4.16v3.7h5.87v-3.7h-5.87Z"/><path class="cls-2" d="m78.22,38.71c.1-.17.23-.4.39-.68.16-.28.29-.49.42-.62.12-.14.25-.21.39-.21.28,0,.96.49,2.05,1.48,1.09.99,1.78,1.74,2.05,2.26.1.21.05.38-.16.52-.45.38-1.16.62-2.13.73v13.99c1.14,1.39,2.38,2.42,3.69,3.1,1.32.68,2.89,1.13,4.71,1.35,1.82.23,4.27.34,7.36.34,7.6,0,14.01-.07,19.25-.21.28,0,.42.12.42.36,0,.21-.12.36-.36.47-1.08.24-1.75,1.04-2.03,2.39-.1.24-.26.36-.47.36h-16.75c-3.19,0-5.77-.19-7.73-.57-1.96-.38-3.63-1.08-5.02-2.11-1.39-1.02-2.67-2.52-3.85-4.5-1.01,1.14-2.23,2.41-3.67,3.8-1.44,1.39-2.66,2.5-3.67,3.33l.05.31c0,.24-.09.49-.26.73-.07.07-.16.1-.26.1-.14,0-.24-.09-.31-.26l-1.87-3.64c-.1-.24-.05-.42.16-.52,2.25-1.07,4.73-2.39,7.44-3.95v-15.35h-2.45c-1.35.03-2.69.24-4.01.62h-.16c-.14,0-.26-.09-.36-.26l-.83-1.82-.05-.21c0-.07.03-.13.1-.18.07-.05.16-.06.26-.03,1.53.17,3,.28,4.42.31h2.39l.83-1.46Zm-6.35-18.88c.14-.14.33-.17.57-.1,3.05,1.04,5.31,2.32,6.76,3.85,1.46,1.53,2.18,2.95,2.18,4.27,0,.62-.16,1.14-.49,1.53-.33.4-.74.6-1.22.6-.42,0-.82-.12-1.2-.36-.17-.07-.28-.21-.31-.42-.42-1.39-1.22-2.9-2.42-4.53-1.2-1.63-2.47-3.07-3.82-4.32-.21-.21-.23-.38-.05-.52Zm38.76,13.21c.1-.14.26-.36.47-.65.21-.29.39-.52.55-.68.16-.16.3-.23.44-.23.28,0,.99.48,2.13,1.43,1.14.95,1.84,1.67,2.08,2.16.03.17.03.35,0,.52-.21.38-.61.57-1.2.57h-8.64v9.57c.07,4.34.21,8.31.42,11.91,0,.21-.07.38-.21.52-.76.69-1.73,1.04-2.91,1.04-.24,0-.48-.11-.7-.34-.23-.23-.34-.46-.34-.7.14-2.05.26-4.03.36-5.96.1-1.92.17-4.45.21-7.57v-8.48h-10.3c-.1,4.37-.72,8.38-1.85,12.04-1.13,3.66-3.23,6.88-6.32,9.65-.24.17-.45.17-.62,0l-.1-.1c-.17-.17-.17-.36,0-.57,2.29-3.09,3.81-6.5,4.58-10.25.76-3.75,1.14-8.01,1.14-12.8v-6.14c0-2.15-.1-4.07-.31-5.77,0-.35.16-.47.47-.36l3.59,1.3c2.67-.66,4.84-1.25,6.5-1.77,3.68-1.18,6.61-2.51,8.79-4.01.21-.17.4-.14.57.1,2.08,2.25,3.12,3.59,3.12,4.01,0,.24-.24.33-.73.26l-1.25-.16c-2.5.59-5.32,1.15-8.48,1.69-3.16.54-6.19.93-9.1,1.17v10.14h16.6l1.04-1.56Z"/><path class="cls-2" d="m146.84,61.71c.03.45.05.8.05,1.04s.02.43.05.57l.05.21c0,.38-.3.76-.88,1.14-.59.38-1.27.57-2.03.57-.28,0-.53-.11-.75-.34-.23-.23-.34-.46-.34-.7.14-2.05.26-4.03.36-5.96.1-1.92.17-4.45.21-7.57v-18.94c0-4.13-.19-7.47-.57-10.04v-.1c0-.14.04-.23.13-.29.09-.05.2-.04.34.03l3.69,1.82h22.47l.83-1.14c.07-.1.19-.27.36-.49.17-.23.33-.39.47-.49.14-.1.28-.16.42-.16.31,0,.97.4,1.98,1.2,1.01.8,1.63,1.44,1.87,1.92.1.17.07.35-.1.52-.49.38-1.13.64-1.92.78v25.86c.07,4.34.21,8.31.42,11.91,0,.21-.07.38-.21.52-.35.35-.82.67-1.43.96-.61.29-1.17.44-1.69.44-.38,0-.61-.26-.68-.78,0-.21.02-.38.05-.52.03-.17.05-.38.05-.62s.03-.57.1-.99v-1.46h-23.31v1.09Zm23.31-20.91v-16.13h-23.31v16.13h23.31Zm-23.31,1.51v16.8h23.31v-16.8h-23.31Z"/><path class="cls-2" d="m211.61,23.68l2.6,1.35c1.46.49,2.18.88,2.18,1.2,0,.21-.21.36-.62.47l-.99.26c-1.73,3.54-3.78,6.72-6.14,9.55-2.36,2.83-4.87,5.14-7.54,6.95-.24.17-.43.16-.57-.05l-.05-.05c-.17-.21-.17-.4,0-.57,2.43-2.53,4.58-5.41,6.45-8.64.87-1.42,1.7-3.12,2.5-5.1.8-1.98,1.35-3.68,1.66-5.1.03-.28.21-.36.52-.26Zm23.41,33.5c-1.84-3.12-4.3-6.42-7.39-9.88-.21-.21-.21-.38,0-.52.17-.17.36-.17.57,0,3.19,2.01,5.79,4.05,7.8,6.11,2.01,2.06,3.46,3.96,4.34,5.7.88,1.73,1.33,3.23,1.33,4.47,0,.76-.15,1.35-.44,1.77-.3.42-.69.62-1.17.62-.38,0-.82-.16-1.3-.47-.14-.07-.24-.21-.31-.42-.59-2.01-1.53-4.13-2.81-6.35-7.8,1.63-17.51,3.26-29.13,4.89-.21.38-.54.68-.99.88-.03.03-.09.05-.16.05-.17,0-.3-.09-.36-.26l-1.56-4.01-.05-.16c0-.07.03-.14.1-.21.07-.07.17-.1.31-.1,2.53-.07,5.17-.19,7.91-.36,1.8-4.2,3.47-8.83,4.99-13.89.49-1.59.9-3.28,1.25-5.05.35-1.77.57-3.35.68-4.73.03-.31.21-.42.52-.31,1.91.52,3.23.94,3.95,1.25s1.09.57,1.09.78c0,.14-.16.28-.47.42l-.94.42c-1.08,3.23-2.47,6.74-4.19,10.53-1.72,3.8-3.53,7.29-5.44,10.48,7.46-.52,14.74-1.07,21.85-1.66Zm1.51-25.41c2.91,3.21,6.26,5.77,10.04,7.67.17.1.26.21.26.31,0,.17-.03.3-.1.36s-.16.12-.26.16c-.59.17-1.12.47-1.59.88-.47.42-.82.88-1.07,1.4-.1.28-.28.33-.52.16-3.5-2.53-6.49-5.62-8.97-9.26-2.48-3.64-4.29-7.63-5.44-11.97h-4.58c-2.22.03-4.7.26-7.44.68h-.1c-.17,0-.31-.09-.42-.26l-.94-1.77-.05-.21c0-.17.12-.26.36-.26,1.87.17,3.97.3,6.29.36h5.67l1.4-2.18c.14-.24.33-.28.57-.1l3.69,2.71c.24.17.31.33.21.47-.59.49-1.68.78-3.28.88,1.25,3.43,3.33,6.75,6.24,9.96Z"/><path class="cls-2" d="m282.26,20.24c.1-.14.26-.36.47-.65.21-.29.42-.44.62-.44.28,0,.86.38,1.74,1.14.88.76,1.45,1.37,1.69,1.82.1.17.07.35-.1.52-.45.38-.99.62-1.61.73v4.47c.1,3.64.21,6.4.31,8.27,0,.17-.05.35-.16.52-.28.28-.7.54-1.27.78-.57.24-1.08.36-1.53.36h-.05c-.28,0-.42-.14-.42-.42v-1.82h-10.35v16.23c.07,4.3.21,8.29.42,11.97,0,.14-.05.31-.16.52-.24.38-.62.7-1.14.96-.52.26-1.08.39-1.66.39-.31,0-.59-.1-.83-.31-.24-.21-.36-.45-.36-.73.14-2.05.26-4.03.36-5.96.1-1.92.17-4.45.21-7.57v-20.97c0-4.09-.19-7.46-.57-10.09v-.1c0-.14.04-.23.13-.26.09-.03.2-.02.34.05l3.49,1.66h9.73l.73-1.09Zm-.31,7.34v-4.68h-10.35v4.68h10.35Zm-10.35,1.56v4.89h10.35v-4.89h-10.35Zm25.8,19.2c.14-.17.28-.36.42-.57.14-.21.29-.4.44-.57.16-.17.3-.26.44-.26.28,0,.88.42,1.82,1.25.94.83,1.53,1.49,1.77,1.98l.05.21c0,.28-.12.49-.36.62-.24.14-.56.21-.94.21h-6.35v3.8c.1,3.16.21,5.5.31,7.02,0,.21-.07.38-.21.52-.24.28-.59.5-1.04.68-.45.17-.97.26-1.56.26-.24,0-.45-.1-.62-.31-.17-.21-.26-.45-.26-.73.14-1.77.26-4.14.36-7.13v-4.11h-6.71c-.35,2.57-1.17,4.91-2.47,7.02-1.3,2.12-3.43,3.92-6.37,5.41-.24.1-.43.05-.57-.16l-.05-.05c-.17-.24-.14-.43.1-.57,2.08-1.63,3.61-3.42,4.58-5.36.97-1.94,1.59-4.04,1.87-6.29h-2.29c-1.18.03-2.34.24-3.49.62h-.16c-.14,0-.26-.09-.36-.26l-.88-1.72-.05-.21c0-.24.14-.33.42-.26,1.46.17,2.95.28,4.47.31h2.45c.03-.45.05-1.11.05-1.98v-5.41h-1.98c-.9.03-1.86.23-2.86.57-.24.1-.42.03-.52-.21l-.94-1.77s-.05-.1-.05-.21c0-.17.14-.26.42-.26,1.87.17,3.97.3,6.29.36h12.85l.99-1.35c.1-.14.25-.34.44-.6.19-.26.36-.46.49-.6.14-.14.28-.21.42-.21.28,0,.88.42,1.82,1.25.94.83,1.53,1.49,1.77,1.98l.05.21c0,.56-.42.83-1.25.83h-5.46v7.39h1.77l.94-1.35Zm-12.23-.62c0,.87-.02,1.53-.05,1.98h6.56v-7.39h-6.5v5.41Zm9.26-11.19c0,.21-.3.44-.88.7-.59.26-1.2.39-1.82.39-.21,0-.38-.1-.52-.31-.14-.21-.21-.45-.21-.73.14-1.28.24-2.91.31-4.89v-2.97c0-3.29-.16-6.16-.47-8.58v-.1c0-.14.04-.23.13-.26.09-.03.2-.02.34.05l3.33,1.51h10.14l.73-1.04c.1-.14.26-.36.47-.65.21-.29.42-.44.62-.44.31,0,.98.38,2,1.14,1.02.76,1.67,1.39,1.95,1.87.1.14.07.3-.1.47-.49.45-1.14.75-1.98.88v37.2c0,1.46-.28,2.56-.83,3.3-.56.75-1.7,1.24-3.43,1.48h-.1c-.17,0-.3-.12-.36-.36-.17-.94-.4-1.56-.68-1.87l-.36-.31c-.59-.49-1.56-.85-2.91-1.09-.24-.07-.36-.21-.36-.42,0-.24.1-.36.31-.36.76,0,1.63.05,2.6.16l1.87.1c.42,0,.7-.08.86-.23.16-.16.23-.42.23-.81v-24.82h-10.87v.99Zm10.87-8.95v-4.68h-10.87v4.68h10.87Zm-10.87,1.56v4.89h10.87v-4.89h-10.87Z"/><path class="cls-2" d="m365.96,20.5c.17-.17.42-.43.73-.78.31-.35.57-.52.78-.52.28,0,.88.51,1.82,1.53.94,1.02,1.53,1.81,1.77,2.37.1.21.05.38-.16.52-.31.14-.97.24-1.98.31-1.56,1.08-3.65,2.26-6.27,3.56-2.62,1.3-5.21,2.47-7.78,3.51,1.42.9,2.46,1.82,3.12,2.76.66.94.99,1.8.99,2.6,0,.62-.19,1.09-.57,1.4h12.02l1.04-1.14c.1-.1.31-.32.62-.65.31-.33.59-.49.83-.49.28,0,.89.47,1.85,1.4.95.94,1.55,1.68,1.79,2.24.1.21.05.38-.16.52-.35.21-.94.33-1.77.36-1.28,1.6-3.04,3.39-5.28,5.38-2.24,1.99-4.36,3.69-6.37,5.07-.17.14-.36.14-.57,0-.21-.14-.21-.31,0-.52,1.32-1.49,2.71-3.23,4.19-5.23,1.47-1.99,2.68-3.79,3.62-5.38h-15.09v21.17c0,1.01-.14,1.85-.42,2.52-.28.68-.83,1.24-1.66,1.69-.83.45-2.05.76-3.64.94h-.1c-.17,0-.3-.12-.36-.36-.17-.9-.61-1.6-1.3-2.08-.97-.59-2.71-1.06-5.2-1.4-.28-.07-.42-.23-.42-.47,0-.1.03-.19.1-.26.07-.07.17-.09.31-.05,4.68.31,7.32.47,7.91.47.52,0,.88-.09,1.09-.26.21-.17.31-.47.31-.88v-21.02h-12.54c-2.22.03-4.7.26-7.44.68h-.16c-.14,0-.26-.09-.36-.26l-.94-1.87s-.05-.1-.05-.21c0-.17.12-.26.36-.26,1.91.17,4.02.3,6.35.36h19.46c-.87-1.46-2.38-3.09-4.53-4.89-2.15-1.8-4.65-3.38-7.49-4.73-.21-.1-.3-.28-.26-.52l.05-.1c.03-.1.1-.18.18-.23.09-.05.2-.06.34-.03,3.29.62,6.35,1.66,9.16,3.12,1.73-1.07,3.5-2.25,5.31-3.51,1.8-1.27,3.35-2.45,4.63-3.56h-18.88c-2.22.03-4.7.26-7.44.68h-.16c-.14,0-.26-.09-.36-.26l-.94-1.82s-.05-.1-.05-.21c0-.17.12-.26.36-.26,1.91.17,4.02.3,6.35.36h22.11l1.14-1.3Z"/><path class="cls-2" d="m431.41,25.24c.14-.17.32-.41.55-.7.23-.29.42-.52.57-.68.16-.16.3-.23.44-.23.31,0,1.05.49,2.21,1.48,1.16.99,1.86,1.73,2.11,2.21.03.17.03.35,0,.52-.21.38-.62.57-1.25.57h-15.82v9.99h13.99l1.14-1.61c.1-.14.28-.37.52-.7.24-.33.44-.57.6-.73.16-.16.3-.23.44-.23.28,0,1,.49,2.16,1.48,1.16.99,1.88,1.74,2.16,2.26.03.17.02.35-.05.52-.21.38-.59.57-1.14.57h-35.53c-2.22.03-4.7.26-7.44.68h-.16c-.14,0-.26-.09-.36-.26l-.88-1.87s-.05-.1-.05-.21c0-.17.12-.26.36-.26,1.91.17,4.02.3,6.35.36h14.51v-9.99h-10.66c-1.73,3.19-3.66,5.84-5.77,7.96-.17.17-.36.19-.57.05l-.1-.05c-.24-.17-.28-.36-.1-.57,1.14-1.8,2.24-4.04,3.28-6.71.62-1.53,1.17-3.29,1.64-5.31.47-2.01.74-3.73.81-5.15,0-.14.04-.24.13-.31.09-.07.2-.07.34,0,3.19.9,4.79,1.56,4.79,1.98,0,.14-.14.26-.42.36l-.88.36c-.66,2.01-1.44,3.95-2.34,5.83h9.88c0-3.29-.16-6.16-.47-8.58v-.1c0-.28.16-.36.47-.26,1.73.49,2.95.89,3.64,1.22.69.33,1.04.62,1.04.86,0,.17-.14.35-.42.52l-.88.57v5.77h10.04l1.14-1.61Zm-24.24,37.51l.1,1.25v.21c0,.31-.3.63-.91.96-.61.33-1.26.49-1.95.49-.21,0-.38-.1-.52-.31-.14-.21-.21-.45-.21-.73.14-1.6.24-3.64.31-6.14v-3.59c0-4.09-.19-7.46-.57-10.09v-.1c0-.14.04-.23.13-.26.09-.03.2-.02.34.05l3.59,1.66h21.75l.83-1.04c.1-.1.29-.31.55-.62.26-.31.49-.47.7-.47.31,0,.96.37,1.95,1.12.99.75,1.6,1.36,1.85,1.85.1.14.07.3-.1.47-.52.45-1.18.75-1.98.88v5.36c.1,4.44.23,7.79.36,10.04,0,.21-.07.38-.21.52-.31.28-.75.54-1.33.78-.57.24-1.08.36-1.53.36-.21,0-.37-.08-.49-.23-.12-.16-.2-.34-.23-.55,0-.21.02-.38.05-.52.03-.1.06-.24.08-.42.02-.17.04-.4.08-.68v-1.2h-22.63v.94Zm0-15.09v12.59h22.63v-12.59h-22.63Z"/></g></svg>